G04 #@! TF.GenerationSoftware,KiCad,Pcbnew,(5.99.0-2378-g637571e0b-dirty)*
G04 #@! TF.CreationDate,2020-07-24T22:12:36+02:00*
G04 #@! TF.ProjectId,stm32f4_fpga,73746d33-3266-4345-9f66-7067612e6b69,rev?*
G04 #@! TF.SameCoordinates,Original*
G04 #@! TF.FileFunction,Legend,Top*
G04 #@! TF.FilePolarity,Positive*
%FSLAX46Y46*%
G04 Gerber Fmt 4.6, Leading zero omitted, Abs format (unit mm)*
G04 Created by KiCad (PCBNEW (5.99.0-2378-g637571e0b-dirty)) date 2020-07-24 22:12:36*
%MOMM*%
%LPD*%
G01*
G04 APERTURE LIST*
%ADD10C,0.150000*%
%ADD11C,0.200000*%
%ADD12C,0.120000*%
G04 APERTURE END LIST*
D10*
X146091904Y-86240476D02*
X146091904Y-85745238D01*
X146396666Y-86011904D01*
X146396666Y-85897619D01*
X146434761Y-85821428D01*
X146472857Y-85783333D01*
X146549047Y-85745238D01*
X146739523Y-85745238D01*
X146815714Y-85783333D01*
X146853809Y-85821428D01*
X146891904Y-85897619D01*
X146891904Y-86126190D01*
X146853809Y-86202380D01*
X146815714Y-86240476D01*
X146091904Y-85516666D02*
X146891904Y-85250000D01*
X146091904Y-84983333D01*
X146091904Y-84792857D02*
X146091904Y-84297619D01*
X146396666Y-84564285D01*
X146396666Y-84450000D01*
X146434761Y-84373809D01*
X146472857Y-84335714D01*
X146549047Y-84297619D01*
X146739523Y-84297619D01*
X146815714Y-84335714D01*
X146853809Y-84373809D01*
X146891904Y-84450000D01*
X146891904Y-84678571D01*
X146853809Y-84754761D01*
X146815714Y-84792857D01*
X148103714Y-85383333D02*
X148141809Y-85421428D01*
X148179904Y-85535714D01*
X148179904Y-85611904D01*
X148141809Y-85726190D01*
X148065619Y-85802380D01*
X147989428Y-85840476D01*
X147837047Y-85878571D01*
X147722761Y-85878571D01*
X147570380Y-85840476D01*
X147494190Y-85802380D01*
X147418000Y-85726190D01*
X147379904Y-85611904D01*
X147379904Y-85535714D01*
X147418000Y-85421428D01*
X147456095Y-85383333D01*
X148141809Y-85078571D02*
X148179904Y-84964285D01*
X148179904Y-84773809D01*
X148141809Y-84697619D01*
X148103714Y-84659523D01*
X148027523Y-84621428D01*
X147951333Y-84621428D01*
X147875142Y-84659523D01*
X147837047Y-84697619D01*
X147798952Y-84773809D01*
X147760857Y-84926190D01*
X147722761Y-85002380D01*
X147684666Y-85040476D01*
X147608476Y-85078571D01*
X147532285Y-85078571D01*
X147456095Y-85040476D01*
X147418000Y-85002380D01*
X147379904Y-84926190D01*
X147379904Y-84735714D01*
X147418000Y-84621428D01*
X149467904Y-86507142D02*
X148667904Y-86507142D01*
X149239333Y-86240476D01*
X148667904Y-85973809D01*
X149467904Y-85973809D01*
X149467904Y-85592857D02*
X148667904Y-85592857D01*
X149429809Y-85250000D02*
X149467904Y-85135714D01*
X149467904Y-84945238D01*
X149429809Y-84869047D01*
X149391714Y-84830952D01*
X149315523Y-84792857D01*
X149239333Y-84792857D01*
X149163142Y-84830952D01*
X149125047Y-84869047D01*
X149086952Y-84945238D01*
X149048857Y-85097619D01*
X149010761Y-85173809D01*
X148972666Y-85211904D01*
X148896476Y-85250000D01*
X148820285Y-85250000D01*
X148744095Y-85211904D01*
X148706000Y-85173809D01*
X148667904Y-85097619D01*
X148667904Y-84907142D01*
X148706000Y-84792857D01*
X148667904Y-84297619D02*
X148667904Y-84145238D01*
X148706000Y-84069047D01*
X148782190Y-83992857D01*
X148934571Y-83954761D01*
X149201238Y-83954761D01*
X149353619Y-83992857D01*
X149429809Y-84069047D01*
X149467904Y-84145238D01*
X149467904Y-84297619D01*
X149429809Y-84373809D01*
X149353619Y-84450000D01*
X149201238Y-84488095D01*
X148934571Y-84488095D01*
X148782190Y-84450000D01*
X148706000Y-84373809D01*
X148667904Y-84297619D01*
X150717809Y-86278571D02*
X150755904Y-86164285D01*
X150755904Y-85973809D01*
X150717809Y-85897619D01*
X150679714Y-85859523D01*
X150603523Y-85821428D01*
X150527333Y-85821428D01*
X150451142Y-85859523D01*
X150413047Y-85897619D01*
X150374952Y-85973809D01*
X150336857Y-86126190D01*
X150298761Y-86202380D01*
X150260666Y-86240476D01*
X150184476Y-86278571D01*
X150108285Y-86278571D01*
X150032095Y-86240476D01*
X149994000Y-86202380D01*
X149955904Y-86126190D01*
X149955904Y-85935714D01*
X149994000Y-85821428D01*
X150679714Y-85021428D02*
X150717809Y-85059523D01*
X150755904Y-85173809D01*
X150755904Y-85250000D01*
X150717809Y-85364285D01*
X150641619Y-85440476D01*
X150565428Y-85478571D01*
X150413047Y-85516666D01*
X150298761Y-85516666D01*
X150146380Y-85478571D01*
X150070190Y-85440476D01*
X149994000Y-85364285D01*
X149955904Y-85250000D01*
X149955904Y-85173809D01*
X149994000Y-85059523D01*
X150032095Y-85021428D01*
X150755904Y-84678571D02*
X149955904Y-84678571D01*
X150755904Y-84221428D02*
X150298761Y-84564285D01*
X149955904Y-84221428D02*
X150413047Y-84678571D01*
X152043904Y-86507142D02*
X151243904Y-86507142D01*
X151815333Y-86240476D01*
X151243904Y-85973809D01*
X152043904Y-85973809D01*
X151243904Y-85440476D02*
X151243904Y-85288095D01*
X151282000Y-85211904D01*
X151358190Y-85135714D01*
X151510571Y-85097619D01*
X151777238Y-85097619D01*
X151929619Y-85135714D01*
X152005809Y-85211904D01*
X152043904Y-85288095D01*
X152043904Y-85440476D01*
X152005809Y-85516666D01*
X151929619Y-85592857D01*
X151777238Y-85630952D01*
X151510571Y-85630952D01*
X151358190Y-85592857D01*
X151282000Y-85516666D01*
X151243904Y-85440476D01*
X152005809Y-84792857D02*
X152043904Y-84678571D01*
X152043904Y-84488095D01*
X152005809Y-84411904D01*
X151967714Y-84373809D01*
X151891523Y-84335714D01*
X151815333Y-84335714D01*
X151739142Y-84373809D01*
X151701047Y-84411904D01*
X151662952Y-84488095D01*
X151624857Y-84640476D01*
X151586761Y-84716666D01*
X151548666Y-84754761D01*
X151472476Y-84792857D01*
X151396285Y-84792857D01*
X151320095Y-84754761D01*
X151282000Y-84716666D01*
X151243904Y-84640476D01*
X151243904Y-84450000D01*
X151282000Y-84335714D01*
X152043904Y-83992857D02*
X151243904Y-83992857D01*
X152570000Y-85859523D02*
X152531904Y-85935714D01*
X152531904Y-86050000D01*
X152570000Y-86164285D01*
X152646190Y-86240476D01*
X152722380Y-86278571D01*
X152874761Y-86316666D01*
X152989047Y-86316666D01*
X153141428Y-86278571D01*
X153217619Y-86240476D01*
X153293809Y-86164285D01*
X153331904Y-86050000D01*
X153331904Y-85973809D01*
X153293809Y-85859523D01*
X153255714Y-85821428D01*
X152989047Y-85821428D01*
X152989047Y-85973809D01*
X153331904Y-85478571D02*
X152531904Y-85478571D01*
X153331904Y-85021428D01*
X152531904Y-85021428D01*
X153331904Y-84640476D02*
X152531904Y-84640476D01*
X152531904Y-84450000D01*
X152570000Y-84335714D01*
X152646190Y-84259523D01*
X152722380Y-84221428D01*
X152874761Y-84183333D01*
X152989047Y-84183333D01*
X153141428Y-84221428D01*
X153217619Y-84259523D01*
X153293809Y-84335714D01*
X153331904Y-84450000D01*
X153331904Y-84640476D01*
X120036000Y-89414285D02*
X119978857Y-89528571D01*
X119978857Y-89700000D01*
X120036000Y-89871428D01*
X120150285Y-89985714D01*
X120264571Y-90042857D01*
X120493142Y-90100000D01*
X120664571Y-90100000D01*
X120893142Y-90042857D01*
X121007428Y-89985714D01*
X121121714Y-89871428D01*
X121178857Y-89700000D01*
X121178857Y-89585714D01*
X121121714Y-89414285D01*
X121064571Y-89357142D01*
X120664571Y-89357142D01*
X120664571Y-89585714D01*
X121178857Y-88842857D02*
X119978857Y-88842857D01*
X121178857Y-88157142D01*
X119978857Y-88157142D01*
X121178857Y-87585714D02*
X119978857Y-87585714D01*
X119978857Y-87300000D01*
X120036000Y-87128571D01*
X120150285Y-87014285D01*
X120264571Y-86957142D01*
X120493142Y-86900000D01*
X120664571Y-86900000D01*
X120893142Y-86957142D01*
X121007428Y-87014285D01*
X121121714Y-87128571D01*
X121178857Y-87300000D01*
X121178857Y-87585714D01*
X121910857Y-89985714D02*
X121910857Y-89242857D01*
X122368000Y-89642857D01*
X122368000Y-89471428D01*
X122425142Y-89357142D01*
X122482285Y-89300000D01*
X122596571Y-89242857D01*
X122882285Y-89242857D01*
X122996571Y-89300000D01*
X123053714Y-89357142D01*
X123110857Y-89471428D01*
X123110857Y-89814285D01*
X123053714Y-89928571D01*
X122996571Y-89985714D01*
X121910857Y-88900000D02*
X123110857Y-88500000D01*
X121910857Y-88100000D01*
X121910857Y-87814285D02*
X121910857Y-87071428D01*
X122368000Y-87471428D01*
X122368000Y-87300000D01*
X122425142Y-87185714D01*
X122482285Y-87128571D01*
X122596571Y-87071428D01*
X122882285Y-87071428D01*
X122996571Y-87128571D01*
X123053714Y-87185714D01*
X123110857Y-87300000D01*
X123110857Y-87642857D01*
X123053714Y-87757142D01*
X122996571Y-87814285D01*
X124985714Y-89928571D02*
X125042857Y-89757142D01*
X125042857Y-89471428D01*
X124985714Y-89357142D01*
X124928571Y-89300000D01*
X124814285Y-89242857D01*
X124700000Y-89242857D01*
X124585714Y-89300000D01*
X124528571Y-89357142D01*
X124471428Y-89471428D01*
X124414285Y-89700000D01*
X124357142Y-89814285D01*
X124300000Y-89871428D01*
X124185714Y-89928571D01*
X124071428Y-89928571D01*
X123957142Y-89871428D01*
X123900000Y-89814285D01*
X123842857Y-89700000D01*
X123842857Y-89414285D01*
X123900000Y-89242857D01*
X124928571Y-88042857D02*
X124985714Y-88100000D01*
X125042857Y-88271428D01*
X125042857Y-88385714D01*
X124985714Y-88557142D01*
X124871428Y-88671428D01*
X124757142Y-88728571D01*
X124528571Y-88785714D01*
X124357142Y-88785714D01*
X124128571Y-88728571D01*
X124014285Y-88671428D01*
X123900000Y-88557142D01*
X123842857Y-88385714D01*
X123842857Y-88271428D01*
X123900000Y-88100000D01*
X123957142Y-88042857D01*
X125042857Y-86957142D02*
X125042857Y-87528571D01*
X123842857Y-87528571D01*
X126917714Y-89957142D02*
X126974857Y-89785714D01*
X126974857Y-89500000D01*
X126917714Y-89385714D01*
X126860571Y-89328571D01*
X126746285Y-89271428D01*
X126632000Y-89271428D01*
X126517714Y-89328571D01*
X126460571Y-89385714D01*
X126403428Y-89500000D01*
X126346285Y-89728571D01*
X126289142Y-89842857D01*
X126232000Y-89900000D01*
X126117714Y-89957142D01*
X126003428Y-89957142D01*
X125889142Y-89900000D01*
X125832000Y-89842857D01*
X125774857Y-89728571D01*
X125774857Y-89442857D01*
X125832000Y-89271428D01*
X126974857Y-88757142D02*
X125774857Y-88757142D01*
X125774857Y-88471428D01*
X125832000Y-88300000D01*
X125946285Y-88185714D01*
X126060571Y-88128571D01*
X126289142Y-88071428D01*
X126460571Y-88071428D01*
X126689142Y-88128571D01*
X126803428Y-88185714D01*
X126917714Y-88300000D01*
X126974857Y-88471428D01*
X126974857Y-88757142D01*
X126632000Y-87614285D02*
X126632000Y-87042857D01*
X126974857Y-87728571D02*
X125774857Y-87328571D01*
X126974857Y-86928571D01*
X131826071Y-44268000D02*
X132397500Y-44268000D01*
X131711785Y-44610857D02*
X132111785Y-43410857D01*
X132511785Y-44610857D01*
X132911785Y-44610857D02*
X132911785Y-43410857D01*
X133197500Y-43410857D01*
X133368928Y-43468000D01*
X133483214Y-43582285D01*
X133540357Y-43696571D01*
X133597500Y-43925142D01*
X133597500Y-44096571D01*
X133540357Y-44325142D01*
X133483214Y-44439428D01*
X133368928Y-44553714D01*
X133197500Y-44610857D01*
X132911785Y-44610857D01*
X134797500Y-44496571D02*
X134740357Y-44553714D01*
X134568928Y-44610857D01*
X134454642Y-44610857D01*
X134283214Y-44553714D01*
X134168928Y-44439428D01*
X134111785Y-44325142D01*
X134054642Y-44096571D01*
X134054642Y-43925142D01*
X134111785Y-43696571D01*
X134168928Y-43582285D01*
X134283214Y-43468000D01*
X134454642Y-43410857D01*
X134568928Y-43410857D01*
X134740357Y-43468000D01*
X134797500Y-43525142D01*
X135540357Y-43410857D02*
X135654642Y-43410857D01*
X135768928Y-43468000D01*
X135826071Y-43525142D01*
X135883214Y-43639428D01*
X135940357Y-43868000D01*
X135940357Y-44153714D01*
X135883214Y-44382285D01*
X135826071Y-44496571D01*
X135768928Y-44553714D01*
X135654642Y-44610857D01*
X135540357Y-44610857D01*
X135426071Y-44553714D01*
X135368928Y-44496571D01*
X135311785Y-44382285D01*
X135254642Y-44153714D01*
X135254642Y-43868000D01*
X135311785Y-43639428D01*
X135368928Y-43525142D01*
X135426071Y-43468000D01*
X135540357Y-43410857D01*
X132511785Y-45400000D02*
X132397500Y-45342857D01*
X132226071Y-45342857D01*
X132054642Y-45400000D01*
X131940357Y-45514285D01*
X131883214Y-45628571D01*
X131826071Y-45857142D01*
X131826071Y-46028571D01*
X131883214Y-46257142D01*
X131940357Y-46371428D01*
X132054642Y-46485714D01*
X132226071Y-46542857D01*
X132340357Y-46542857D01*
X132511785Y-46485714D01*
X132568928Y-46428571D01*
X132568928Y-46028571D01*
X132340357Y-46028571D01*
X133083214Y-46542857D02*
X133083214Y-45342857D01*
X133768928Y-46542857D01*
X133768928Y-45342857D01*
X134340357Y-46542857D02*
X134340357Y-45342857D01*
X134626071Y-45342857D01*
X134797500Y-45400000D01*
X134911785Y-45514285D01*
X134968928Y-45628571D01*
X135026071Y-45857142D01*
X135026071Y-46028571D01*
X134968928Y-46257142D01*
X134911785Y-46371428D01*
X134797500Y-46485714D01*
X134626071Y-46542857D01*
X134340357Y-46542857D01*
X131826071Y-48132000D02*
X132397500Y-48132000D01*
X131711785Y-48474857D02*
X132111785Y-47274857D01*
X132511785Y-48474857D01*
X132911785Y-48474857D02*
X132911785Y-47274857D01*
X133197500Y-47274857D01*
X133368928Y-47332000D01*
X133483214Y-47446285D01*
X133540357Y-47560571D01*
X133597500Y-47789142D01*
X133597500Y-47960571D01*
X133540357Y-48189142D01*
X133483214Y-48303428D01*
X133368928Y-48417714D01*
X133197500Y-48474857D01*
X132911785Y-48474857D01*
X134797500Y-48360571D02*
X134740357Y-48417714D01*
X134568928Y-48474857D01*
X134454642Y-48474857D01*
X134283214Y-48417714D01*
X134168928Y-48303428D01*
X134111785Y-48189142D01*
X134054642Y-47960571D01*
X134054642Y-47789142D01*
X134111785Y-47560571D01*
X134168928Y-47446285D01*
X134283214Y-47332000D01*
X134454642Y-47274857D01*
X134568928Y-47274857D01*
X134740357Y-47332000D01*
X134797500Y-47389142D01*
X135254642Y-47389142D02*
X135311785Y-47332000D01*
X135426071Y-47274857D01*
X135711785Y-47274857D01*
X135826071Y-47332000D01*
X135883214Y-47389142D01*
X135940357Y-47503428D01*
X135940357Y-47617714D01*
X135883214Y-47789142D01*
X135197500Y-48474857D01*
X135940357Y-48474857D01*
X131883214Y-54110857D02*
X131883214Y-52910857D01*
X132168928Y-52910857D01*
X132340357Y-52968000D01*
X132454642Y-53082285D01*
X132511785Y-53196571D01*
X132568928Y-53425142D01*
X132568928Y-53596571D01*
X132511785Y-53825142D01*
X132454642Y-53939428D01*
X132340357Y-54053714D01*
X132168928Y-54110857D01*
X131883214Y-54110857D01*
X133026071Y-53768000D02*
X133597500Y-53768000D01*
X132911785Y-54110857D02*
X133311785Y-52910857D01*
X133711785Y-54110857D01*
X134797500Y-53996571D02*
X134740357Y-54053714D01*
X134568928Y-54110857D01*
X134454642Y-54110857D01*
X134283214Y-54053714D01*
X134168928Y-53939428D01*
X134111785Y-53825142D01*
X134054642Y-53596571D01*
X134054642Y-53425142D01*
X134111785Y-53196571D01*
X134168928Y-53082285D01*
X134283214Y-52968000D01*
X134454642Y-52910857D01*
X134568928Y-52910857D01*
X134740357Y-52968000D01*
X134797500Y-53025142D01*
X135254642Y-53025142D02*
X135311785Y-52968000D01*
X135426071Y-52910857D01*
X135711785Y-52910857D01*
X135826071Y-52968000D01*
X135883214Y-53025142D01*
X135940357Y-53139428D01*
X135940357Y-53253714D01*
X135883214Y-53425142D01*
X135197500Y-54110857D01*
X135940357Y-54110857D01*
X132511785Y-54900000D02*
X132397500Y-54842857D01*
X132226071Y-54842857D01*
X132054642Y-54900000D01*
X131940357Y-55014285D01*
X131883214Y-55128571D01*
X131826071Y-55357142D01*
X131826071Y-55528571D01*
X131883214Y-55757142D01*
X131940357Y-55871428D01*
X132054642Y-55985714D01*
X132226071Y-56042857D01*
X132340357Y-56042857D01*
X132511785Y-55985714D01*
X132568928Y-55928571D01*
X132568928Y-55528571D01*
X132340357Y-55528571D01*
X133083214Y-56042857D02*
X133083214Y-54842857D01*
X133768928Y-56042857D01*
X133768928Y-54842857D01*
X134340357Y-56042857D02*
X134340357Y-54842857D01*
X134626071Y-54842857D01*
X134797500Y-54900000D01*
X134911785Y-55014285D01*
X134968928Y-55128571D01*
X135026071Y-55357142D01*
X135026071Y-55528571D01*
X134968928Y-55757142D01*
X134911785Y-55871428D01*
X134797500Y-55985714D01*
X134626071Y-56042857D01*
X134340357Y-56042857D01*
X131883214Y-57974857D02*
X131883214Y-56774857D01*
X132168928Y-56774857D01*
X132340357Y-56832000D01*
X132454642Y-56946285D01*
X132511785Y-57060571D01*
X132568928Y-57289142D01*
X132568928Y-57460571D01*
X132511785Y-57689142D01*
X132454642Y-57803428D01*
X132340357Y-57917714D01*
X132168928Y-57974857D01*
X131883214Y-57974857D01*
X133026071Y-57632000D02*
X133597500Y-57632000D01*
X132911785Y-57974857D02*
X133311785Y-56774857D01*
X133711785Y-57974857D01*
X134797500Y-57860571D02*
X134740357Y-57917714D01*
X134568928Y-57974857D01*
X134454642Y-57974857D01*
X134283214Y-57917714D01*
X134168928Y-57803428D01*
X134111785Y-57689142D01*
X134054642Y-57460571D01*
X134054642Y-57289142D01*
X134111785Y-57060571D01*
X134168928Y-56946285D01*
X134283214Y-56832000D01*
X134454642Y-56774857D01*
X134568928Y-56774857D01*
X134740357Y-56832000D01*
X134797500Y-56889142D01*
X135940357Y-57974857D02*
X135254642Y-57974857D01*
X135597500Y-57974857D02*
X135597500Y-56774857D01*
X135483214Y-56946285D01*
X135368928Y-57060571D01*
X135254642Y-57117714D01*
X157588214Y-58553714D02*
X157759642Y-58610857D01*
X158045357Y-58610857D01*
X158159642Y-58553714D01*
X158216785Y-58496571D01*
X158273928Y-58382285D01*
X158273928Y-58268000D01*
X158216785Y-58153714D01*
X158159642Y-58096571D01*
X158045357Y-58039428D01*
X157816785Y-57982285D01*
X157702500Y-57925142D01*
X157645357Y-57868000D01*
X157588214Y-57753714D01*
X157588214Y-57639428D01*
X157645357Y-57525142D01*
X157702500Y-57468000D01*
X157816785Y-57410857D01*
X158102500Y-57410857D01*
X158273928Y-57468000D01*
X158673928Y-57410857D02*
X158959642Y-58610857D01*
X159188214Y-57753714D01*
X159416785Y-58610857D01*
X159702500Y-57410857D01*
X160159642Y-58610857D02*
X160159642Y-57410857D01*
X160445357Y-57410857D01*
X160616785Y-57468000D01*
X160731071Y-57582285D01*
X160788214Y-57696571D01*
X160845357Y-57925142D01*
X160845357Y-58096571D01*
X160788214Y-58325142D01*
X160731071Y-58439428D01*
X160616785Y-58553714D01*
X160445357Y-58610857D01*
X160159642Y-58610857D01*
X161359642Y-58610857D02*
X161359642Y-57410857D01*
X162159642Y-57410857D02*
X162388214Y-57410857D01*
X162502500Y-57468000D01*
X162616785Y-57582285D01*
X162673928Y-57810857D01*
X162673928Y-58210857D01*
X162616785Y-58439428D01*
X162502500Y-58553714D01*
X162388214Y-58610857D01*
X162159642Y-58610857D01*
X162045357Y-58553714D01*
X161931071Y-58439428D01*
X161873928Y-58210857D01*
X161873928Y-57810857D01*
X161931071Y-57582285D01*
X162045357Y-57468000D01*
X162159642Y-57410857D01*
X157245357Y-60485714D02*
X157416785Y-60542857D01*
X157702500Y-60542857D01*
X157816785Y-60485714D01*
X157873928Y-60428571D01*
X157931071Y-60314285D01*
X157931071Y-60200000D01*
X157873928Y-60085714D01*
X157816785Y-60028571D01*
X157702500Y-59971428D01*
X157473928Y-59914285D01*
X157359642Y-59857142D01*
X157302500Y-59800000D01*
X157245357Y-59685714D01*
X157245357Y-59571428D01*
X157302500Y-59457142D01*
X157359642Y-59400000D01*
X157473928Y-59342857D01*
X157759642Y-59342857D01*
X157931071Y-59400000D01*
X158331071Y-59342857D02*
X158616785Y-60542857D01*
X158845357Y-59685714D01*
X159073928Y-60542857D01*
X159359642Y-59342857D01*
X160502500Y-60428571D02*
X160445357Y-60485714D01*
X160273928Y-60542857D01*
X160159642Y-60542857D01*
X159988214Y-60485714D01*
X159873928Y-60371428D01*
X159816785Y-60257142D01*
X159759642Y-60028571D01*
X159759642Y-59857142D01*
X159816785Y-59628571D01*
X159873928Y-59514285D01*
X159988214Y-59400000D01*
X160159642Y-59342857D01*
X160273928Y-59342857D01*
X160445357Y-59400000D01*
X160502500Y-59457142D01*
X161588214Y-60542857D02*
X161016785Y-60542857D01*
X161016785Y-59342857D01*
X161988214Y-60542857D02*
X161988214Y-59342857D01*
X162673928Y-60542857D02*
X162159642Y-59857142D01*
X162673928Y-59342857D02*
X161988214Y-60028571D01*
X160159642Y-61332000D02*
X160045357Y-61274857D01*
X159873928Y-61274857D01*
X159702500Y-61332000D01*
X159588214Y-61446285D01*
X159531071Y-61560571D01*
X159473928Y-61789142D01*
X159473928Y-61960571D01*
X159531071Y-62189142D01*
X159588214Y-62303428D01*
X159702500Y-62417714D01*
X159873928Y-62474857D01*
X159988214Y-62474857D01*
X160159642Y-62417714D01*
X160216785Y-62360571D01*
X160216785Y-61960571D01*
X159988214Y-61960571D01*
X160731071Y-62474857D02*
X160731071Y-61274857D01*
X161416785Y-62474857D01*
X161416785Y-61274857D01*
X161988214Y-62474857D02*
X161988214Y-61274857D01*
X162273928Y-61274857D01*
X162445357Y-61332000D01*
X162559642Y-61446285D01*
X162616785Y-61560571D01*
X162673928Y-61789142D01*
X162673928Y-61960571D01*
X162616785Y-62189142D01*
X162559642Y-62303428D01*
X162445357Y-62417714D01*
X162273928Y-62474857D01*
X161988214Y-62474857D01*
X161531071Y-68610857D02*
X161131071Y-68039428D01*
X160845357Y-68610857D02*
X160845357Y-67410857D01*
X161302500Y-67410857D01*
X161416785Y-67468000D01*
X161473928Y-67525142D01*
X161531071Y-67639428D01*
X161531071Y-67810857D01*
X161473928Y-67925142D01*
X161416785Y-67982285D01*
X161302500Y-68039428D01*
X160845357Y-68039428D01*
X161931071Y-67410857D02*
X162731071Y-68610857D01*
X162731071Y-67410857D02*
X161931071Y-68610857D01*
X160959642Y-69342857D02*
X161645357Y-69342857D01*
X161302500Y-70542857D02*
X161302500Y-69342857D01*
X161931071Y-69342857D02*
X162731071Y-70542857D01*
X162731071Y-69342857D02*
X161931071Y-70542857D01*
X160159642Y-71332000D02*
X160045357Y-71274857D01*
X159873928Y-71274857D01*
X159702500Y-71332000D01*
X159588214Y-71446285D01*
X159531071Y-71560571D01*
X159473928Y-71789142D01*
X159473928Y-71960571D01*
X159531071Y-72189142D01*
X159588214Y-72303428D01*
X159702500Y-72417714D01*
X159873928Y-72474857D01*
X159988214Y-72474857D01*
X160159642Y-72417714D01*
X160216785Y-72360571D01*
X160216785Y-71960571D01*
X159988214Y-71960571D01*
X160731071Y-72474857D02*
X160731071Y-71274857D01*
X161416785Y-72474857D01*
X161416785Y-71274857D01*
X161988214Y-72474857D02*
X161988214Y-71274857D01*
X162273928Y-71274857D01*
X162445357Y-71332000D01*
X162559642Y-71446285D01*
X162616785Y-71560571D01*
X162673928Y-71789142D01*
X162673928Y-71960571D01*
X162616785Y-72189142D01*
X162559642Y-72303428D01*
X162445357Y-72417714D01*
X162273928Y-72474857D01*
X161988214Y-72474857D01*
D11*
X175042857Y-53957142D02*
X173842857Y-53957142D01*
X173842857Y-53671428D01*
X173900000Y-53500000D01*
X174014285Y-53385714D01*
X174128571Y-53328571D01*
X174357142Y-53271428D01*
X174528571Y-53271428D01*
X174757142Y-53328571D01*
X174871428Y-53385714D01*
X174985714Y-53500000D01*
X175042857Y-53671428D01*
X175042857Y-53957142D01*
X175042857Y-52757142D02*
X173842857Y-52757142D01*
X174471428Y-51957142D02*
X175042857Y-51957142D01*
X173842857Y-52357142D02*
X174471428Y-51957142D01*
X173842857Y-51557142D01*
X175042857Y-51157142D02*
X173842857Y-51157142D01*
X174700000Y-50757142D01*
X173842857Y-50357142D01*
X175042857Y-50357142D01*
X173842857Y-49557142D02*
X173842857Y-49328571D01*
X173900000Y-49214285D01*
X174014285Y-49100000D01*
X174242857Y-49042857D01*
X174642857Y-49042857D01*
X174871428Y-49100000D01*
X174985714Y-49214285D01*
X175042857Y-49328571D01*
X175042857Y-49557142D01*
X174985714Y-49671428D01*
X174871428Y-49785714D01*
X174642857Y-49842857D01*
X174242857Y-49842857D01*
X174014285Y-49785714D01*
X173900000Y-49671428D01*
X173842857Y-49557142D01*
X175042857Y-47842857D02*
X174471428Y-48242857D01*
X175042857Y-48528571D02*
X173842857Y-48528571D01*
X173842857Y-48071428D01*
X173900000Y-47957142D01*
X173957142Y-47900000D01*
X174071428Y-47842857D01*
X174242857Y-47842857D01*
X174357142Y-47900000D01*
X174414285Y-47957142D01*
X174471428Y-48071428D01*
X174471428Y-48528571D01*
X174414285Y-47328571D02*
X174414285Y-46928571D01*
X175042857Y-46757142D02*
X175042857Y-47328571D01*
X173842857Y-47328571D01*
X173842857Y-46757142D01*
X174585714Y-46242857D02*
X174585714Y-45328571D01*
X174242857Y-44242857D02*
X175042857Y-44242857D01*
X173785714Y-44528571D02*
X174642857Y-44814285D01*
X174642857Y-44071428D01*
X173842857Y-43385714D02*
X173842857Y-43271428D01*
X173900000Y-43157142D01*
X173957142Y-43100000D01*
X174071428Y-43042857D01*
X174300000Y-42985714D01*
X174585714Y-42985714D01*
X174814285Y-43042857D01*
X174928571Y-43100000D01*
X174985714Y-43157142D01*
X175042857Y-43271428D01*
X175042857Y-43385714D01*
X174985714Y-43500000D01*
X174928571Y-43557142D01*
X174814285Y-43614285D01*
X174585714Y-43671428D01*
X174300000Y-43671428D01*
X174071428Y-43614285D01*
X173957142Y-43557142D01*
X173900000Y-43500000D01*
X173842857Y-43385714D01*
X173842857Y-42585714D02*
X173842857Y-41785714D01*
X175042857Y-42300000D01*
X173842857Y-41500000D02*
X175042857Y-41100000D01*
X173842857Y-40700000D01*
X173900000Y-39671428D02*
X173842857Y-39785714D01*
X173842857Y-39957142D01*
X173900000Y-40128571D01*
X174014285Y-40242857D01*
X174128571Y-40300000D01*
X174357142Y-40357142D01*
X174528571Y-40357142D01*
X174757142Y-40300000D01*
X174871428Y-40242857D01*
X174985714Y-40128571D01*
X175042857Y-39957142D01*
X175042857Y-39842857D01*
X174985714Y-39671428D01*
X174928571Y-39614285D01*
X174528571Y-39614285D01*
X174528571Y-39842857D01*
X174928571Y-39100000D02*
X174985714Y-39042857D01*
X175042857Y-39100000D01*
X174985714Y-39157142D01*
X174928571Y-39100000D01*
X175042857Y-39100000D01*
X174300000Y-39100000D02*
X174357142Y-39042857D01*
X174414285Y-39100000D01*
X174357142Y-39157142D01*
X174300000Y-39100000D01*
X174414285Y-39100000D01*
X174928571Y-38528571D02*
X174985714Y-38471428D01*
X175042857Y-38528571D01*
X174985714Y-38585714D01*
X174928571Y-38528571D01*
X175042857Y-38528571D01*
X174300000Y-38528571D02*
X174357142Y-38471428D01*
X174414285Y-38528571D01*
X174357142Y-38585714D01*
X174300000Y-38528571D01*
X174414285Y-38528571D01*
X175042857Y-37957142D02*
X173842857Y-37957142D01*
X174700000Y-37557142D01*
X173842857Y-37157142D01*
X175042857Y-37157142D01*
X173842857Y-36357142D02*
X173842857Y-36128571D01*
X173900000Y-36014285D01*
X174014285Y-35900000D01*
X174242857Y-35842857D01*
X174642857Y-35842857D01*
X174871428Y-35900000D01*
X174985714Y-36014285D01*
X175042857Y-36128571D01*
X175042857Y-36357142D01*
X174985714Y-36471428D01*
X174871428Y-36585714D01*
X174642857Y-36642857D01*
X174242857Y-36642857D01*
X174014285Y-36585714D01*
X173900000Y-36471428D01*
X173842857Y-36357142D01*
X175042857Y-35328571D02*
X173842857Y-35328571D01*
X173842857Y-35042857D01*
X173900000Y-34871428D01*
X174014285Y-34757142D01*
X174128571Y-34700000D01*
X174357142Y-34642857D01*
X174528571Y-34642857D01*
X174757142Y-34700000D01*
X174871428Y-34757142D01*
X174985714Y-34871428D01*
X175042857Y-35042857D01*
X175042857Y-35328571D01*
X174585714Y-34128571D02*
X174585714Y-33214285D01*
X174700000Y-32700000D02*
X174700000Y-32128571D01*
X175042857Y-32814285D02*
X173842857Y-32414285D01*
X175042857Y-32014285D01*
X173842857Y-31728571D02*
X173842857Y-30928571D01*
X175042857Y-31442857D01*
D10*
X131904761Y-11833333D02*
X131952380Y-11690476D01*
X131952380Y-11452380D01*
X131904761Y-11357142D01*
X131857142Y-11309523D01*
X131761904Y-11261904D01*
X131666666Y-11261904D01*
X131571428Y-11309523D01*
X131523809Y-11357142D01*
X131476190Y-11452380D01*
X131428571Y-11642857D01*
X131380952Y-11738095D01*
X131333333Y-11785714D01*
X131238095Y-11833333D01*
X131142857Y-11833333D01*
X131047619Y-11785714D01*
X131000000Y-11738095D01*
X130952380Y-11642857D01*
X130952380Y-11404761D01*
X131000000Y-11261904D01*
X130952380Y-10928571D02*
X131952380Y-10690476D01*
X131238095Y-10500000D01*
X131952380Y-10309523D01*
X130952380Y-10071428D01*
X131285714Y-9261904D02*
X131952380Y-9261904D01*
X130904761Y-9500000D02*
X131619047Y-9738095D01*
X131619047Y-9119047D01*
X131904761Y-20333333D02*
X131952380Y-20190476D01*
X131952380Y-19952380D01*
X131904761Y-19857142D01*
X131857142Y-19809523D01*
X131761904Y-19761904D01*
X131666666Y-19761904D01*
X131571428Y-19809523D01*
X131523809Y-19857142D01*
X131476190Y-19952380D01*
X131428571Y-20142857D01*
X131380952Y-20238095D01*
X131333333Y-20285714D01*
X131238095Y-20333333D01*
X131142857Y-20333333D01*
X131047619Y-20285714D01*
X131000000Y-20238095D01*
X130952380Y-20142857D01*
X130952380Y-19904761D01*
X131000000Y-19761904D01*
X130952380Y-19428571D02*
X131952380Y-19190476D01*
X131238095Y-19000000D01*
X131952380Y-18809523D01*
X130952380Y-18571428D01*
X130952380Y-18285714D02*
X130952380Y-17666666D01*
X131333333Y-18000000D01*
X131333333Y-17857142D01*
X131380952Y-17761904D01*
X131428571Y-17714285D01*
X131523809Y-17666666D01*
X131761904Y-17666666D01*
X131857142Y-17714285D01*
X131904761Y-17761904D01*
X131952380Y-17857142D01*
X131952380Y-18142857D01*
X131904761Y-18238095D01*
X131857142Y-18285714D01*
X124702380Y-69392857D02*
X124226190Y-69726190D01*
X124702380Y-69964285D02*
X123702380Y-69964285D01*
X123702380Y-69583333D01*
X123750000Y-69488095D01*
X123797619Y-69440476D01*
X123892857Y-69392857D01*
X124035714Y-69392857D01*
X124130952Y-69440476D01*
X124178571Y-69488095D01*
X124226190Y-69583333D01*
X124226190Y-69964285D01*
X124702380Y-68440476D02*
X124702380Y-69011904D01*
X124702380Y-68726190D02*
X123702380Y-68726190D01*
X123845238Y-68821428D01*
X123940476Y-68916666D01*
X123988095Y-69011904D01*
X124702380Y-67488095D02*
X124702380Y-68059523D01*
X124702380Y-67773809D02*
X123702380Y-67773809D01*
X123845238Y-67869047D01*
X123940476Y-67964285D01*
X123988095Y-68059523D01*
X124702380Y-59142857D02*
X124226190Y-59476190D01*
X124702380Y-59714285D02*
X123702380Y-59714285D01*
X123702380Y-59333333D01*
X123750000Y-59238095D01*
X123797619Y-59190476D01*
X123892857Y-59142857D01*
X124035714Y-59142857D01*
X124130952Y-59190476D01*
X124178571Y-59238095D01*
X124226190Y-59333333D01*
X124226190Y-59714285D01*
X124702380Y-58190476D02*
X124702380Y-58761904D01*
X124702380Y-58476190D02*
X123702380Y-58476190D01*
X123845238Y-58571428D01*
X123940476Y-58666666D01*
X123988095Y-58761904D01*
X123702380Y-57571428D02*
X123702380Y-57476190D01*
X123750000Y-57380952D01*
X123797619Y-57333333D01*
X123892857Y-57285714D01*
X124083333Y-57238095D01*
X124321428Y-57238095D01*
X124511904Y-57285714D01*
X124607142Y-57333333D01*
X124654761Y-57380952D01*
X124702380Y-57476190D01*
X124702380Y-57571428D01*
X124654761Y-57666666D01*
X124607142Y-57714285D01*
X124511904Y-57761904D01*
X124321428Y-57809523D01*
X124083333Y-57809523D01*
X123892857Y-57761904D01*
X123797619Y-57714285D01*
X123750000Y-57666666D01*
X123702380Y-57571428D01*
X120761904Y-67452380D02*
X120761904Y-66452380D01*
X121000000Y-66452380D01*
X121142857Y-66500000D01*
X121238095Y-66595238D01*
X121285714Y-66690476D01*
X121333333Y-66880952D01*
X121333333Y-67023809D01*
X121285714Y-67214285D01*
X121238095Y-67309523D01*
X121142857Y-67404761D01*
X121000000Y-67452380D01*
X120761904Y-67452380D01*
X122190476Y-66452380D02*
X122000000Y-66452380D01*
X121904761Y-66500000D01*
X121857142Y-66547619D01*
X121761904Y-66690476D01*
X121714285Y-66880952D01*
X121714285Y-67261904D01*
X121761904Y-67357142D01*
X121809523Y-67404761D01*
X121904761Y-67452380D01*
X122095238Y-67452380D01*
X122190476Y-67404761D01*
X122238095Y-67357142D01*
X122285714Y-67261904D01*
X122285714Y-67023809D01*
X122238095Y-66928571D01*
X122190476Y-66880952D01*
X122095238Y-66833333D01*
X121904761Y-66833333D01*
X121809523Y-66880952D01*
X121761904Y-66928571D01*
X121714285Y-67023809D01*
X120761904Y-61302380D02*
X120761904Y-60302380D01*
X121000000Y-60302380D01*
X121142857Y-60350000D01*
X121238095Y-60445238D01*
X121285714Y-60540476D01*
X121333333Y-60730952D01*
X121333333Y-60873809D01*
X121285714Y-61064285D01*
X121238095Y-61159523D01*
X121142857Y-61254761D01*
X121000000Y-61302380D01*
X120761904Y-61302380D01*
X122238095Y-60302380D02*
X121761904Y-60302380D01*
X121714285Y-60778571D01*
X121761904Y-60730952D01*
X121857142Y-60683333D01*
X122095238Y-60683333D01*
X122190476Y-60730952D01*
X122238095Y-60778571D01*
X122285714Y-60873809D01*
X122285714Y-61111904D01*
X122238095Y-61207142D01*
X122190476Y-61254761D01*
X122095238Y-61302380D01*
X121857142Y-61302380D01*
X121761904Y-61254761D01*
X121714285Y-61207142D01*
X134357142Y-14642857D02*
X134404761Y-14690476D01*
X134452380Y-14833333D01*
X134452380Y-14928571D01*
X134404761Y-15071428D01*
X134309523Y-15166666D01*
X134214285Y-15214285D01*
X134023809Y-15261904D01*
X133880952Y-15261904D01*
X133690476Y-15214285D01*
X133595238Y-15166666D01*
X133500000Y-15071428D01*
X133452380Y-14928571D01*
X133452380Y-14833333D01*
X133500000Y-14690476D01*
X133547619Y-14642857D01*
X134452380Y-13690476D02*
X134452380Y-14261904D01*
X134452380Y-13976190D02*
X133452380Y-13976190D01*
X133595238Y-14071428D01*
X133690476Y-14166666D01*
X133738095Y-14261904D01*
X133452380Y-13071428D02*
X133452380Y-12976190D01*
X133500000Y-12880952D01*
X133547619Y-12833333D01*
X133642857Y-12785714D01*
X133833333Y-12738095D01*
X134071428Y-12738095D01*
X134261904Y-12785714D01*
X134357142Y-12833333D01*
X134404761Y-12880952D01*
X134452380Y-12976190D01*
X134452380Y-13071428D01*
X134404761Y-13166666D01*
X134357142Y-13214285D01*
X134261904Y-13261904D01*
X134071428Y-13309523D01*
X133833333Y-13309523D01*
X133642857Y-13261904D01*
X133547619Y-13214285D01*
X133500000Y-13166666D01*
X133452380Y-13071428D01*
X134357142Y-22666666D02*
X134404761Y-22714285D01*
X134452380Y-22857142D01*
X134452380Y-22952380D01*
X134404761Y-23095238D01*
X134309523Y-23190476D01*
X134214285Y-23238095D01*
X134023809Y-23285714D01*
X133880952Y-23285714D01*
X133690476Y-23238095D01*
X133595238Y-23190476D01*
X133500000Y-23095238D01*
X133452380Y-22952380D01*
X133452380Y-22857142D01*
X133500000Y-22714285D01*
X133547619Y-22666666D01*
X134452380Y-22190476D02*
X134452380Y-22000000D01*
X134404761Y-21904761D01*
X134357142Y-21857142D01*
X134214285Y-21761904D01*
X134023809Y-21714285D01*
X133642857Y-21714285D01*
X133547619Y-21761904D01*
X133500000Y-21809523D01*
X133452380Y-21904761D01*
X133452380Y-22095238D01*
X133500000Y-22190476D01*
X133547619Y-22238095D01*
X133642857Y-22285714D01*
X133880952Y-22285714D01*
X133976190Y-22238095D01*
X134023809Y-22190476D01*
X134071428Y-22095238D01*
X134071428Y-21904761D01*
X134023809Y-21809523D01*
X133976190Y-21761904D01*
X133880952Y-21714285D01*
X156952380Y-85416666D02*
X156476190Y-85750000D01*
X156952380Y-85988095D02*
X155952380Y-85988095D01*
X155952380Y-85607142D01*
X156000000Y-85511904D01*
X156047619Y-85464285D01*
X156142857Y-85416666D01*
X156285714Y-85416666D01*
X156380952Y-85464285D01*
X156428571Y-85511904D01*
X156476190Y-85607142D01*
X156476190Y-85988095D01*
X156952380Y-84940476D02*
X156952380Y-84750000D01*
X156904761Y-84654761D01*
X156857142Y-84607142D01*
X156714285Y-84511904D01*
X156523809Y-84464285D01*
X156142857Y-84464285D01*
X156047619Y-84511904D01*
X156000000Y-84559523D01*
X155952380Y-84654761D01*
X155952380Y-84845238D01*
X156000000Y-84940476D01*
X156047619Y-84988095D01*
X156142857Y-85035714D01*
X156380952Y-85035714D01*
X156476190Y-84988095D01*
X156523809Y-84940476D01*
X156571428Y-84845238D01*
X156571428Y-84654761D01*
X156523809Y-84559523D01*
X156476190Y-84511904D01*
X156380952Y-84464285D01*
X162452380Y-85566666D02*
X161976190Y-85900000D01*
X162452380Y-86138095D02*
X161452380Y-86138095D01*
X161452380Y-85757142D01*
X161500000Y-85661904D01*
X161547619Y-85614285D01*
X161642857Y-85566666D01*
X161785714Y-85566666D01*
X161880952Y-85614285D01*
X161928571Y-85661904D01*
X161976190Y-85757142D01*
X161976190Y-86138095D01*
X161880952Y-84995238D02*
X161833333Y-85090476D01*
X161785714Y-85138095D01*
X161690476Y-85185714D01*
X161642857Y-85185714D01*
X161547619Y-85138095D01*
X161500000Y-85090476D01*
X161452380Y-84995238D01*
X161452380Y-84804761D01*
X161500000Y-84709523D01*
X161547619Y-84661904D01*
X161642857Y-84614285D01*
X161690476Y-84614285D01*
X161785714Y-84661904D01*
X161833333Y-84709523D01*
X161880952Y-84804761D01*
X161880952Y-84995238D01*
X161928571Y-85090476D01*
X161976190Y-85138095D01*
X162071428Y-85185714D01*
X162261904Y-85185714D01*
X162357142Y-85138095D01*
X162404761Y-85090476D01*
X162452380Y-84995238D01*
X162452380Y-84804761D01*
X162404761Y-84709523D01*
X162357142Y-84661904D01*
X162261904Y-84614285D01*
X162071428Y-84614285D01*
X161976190Y-84661904D01*
X161928571Y-84709523D01*
X161880952Y-84804761D01*
X156861904Y-91090476D02*
X156061904Y-91090476D01*
X156061904Y-90900000D01*
X156100000Y-90785714D01*
X156176190Y-90709523D01*
X156252380Y-90671428D01*
X156404761Y-90633333D01*
X156519047Y-90633333D01*
X156671428Y-90671428D01*
X156747619Y-90709523D01*
X156823809Y-90785714D01*
X156861904Y-90900000D01*
X156861904Y-91090476D01*
X156328571Y-89947619D02*
X156861904Y-89947619D01*
X156023809Y-90138095D02*
X156595238Y-90328571D01*
X156595238Y-89833333D01*
X162611904Y-89840476D02*
X161811904Y-89840476D01*
X161811904Y-89650000D01*
X161850000Y-89535714D01*
X161926190Y-89459523D01*
X162002380Y-89421428D01*
X162154761Y-89383333D01*
X162269047Y-89383333D01*
X162421428Y-89421428D01*
X162497619Y-89459523D01*
X162573809Y-89535714D01*
X162611904Y-89650000D01*
X162611904Y-89840476D01*
X161811904Y-89116666D02*
X161811904Y-88621428D01*
X162116666Y-88888095D01*
X162116666Y-88773809D01*
X162154761Y-88697619D01*
X162192857Y-88659523D01*
X162269047Y-88621428D01*
X162459523Y-88621428D01*
X162535714Y-88659523D01*
X162573809Y-88697619D01*
X162611904Y-88773809D01*
X162611904Y-89002380D01*
X162573809Y-89078571D01*
X162535714Y-89116666D01*
X164404761Y-11583333D02*
X164452380Y-11440476D01*
X164452380Y-11202380D01*
X164404761Y-11107142D01*
X164357142Y-11059523D01*
X164261904Y-11011904D01*
X164166666Y-11011904D01*
X164071428Y-11059523D01*
X164023809Y-11107142D01*
X163976190Y-11202380D01*
X163928571Y-11392857D01*
X163880952Y-11488095D01*
X163833333Y-11535714D01*
X163738095Y-11583333D01*
X163642857Y-11583333D01*
X163547619Y-11535714D01*
X163500000Y-11488095D01*
X163452380Y-11392857D01*
X163452380Y-11154761D01*
X163500000Y-11011904D01*
X163452380Y-10678571D02*
X164452380Y-10440476D01*
X163738095Y-10250000D01*
X164452380Y-10059523D01*
X163452380Y-9821428D01*
X163547619Y-9488095D02*
X163500000Y-9440476D01*
X163452380Y-9345238D01*
X163452380Y-9107142D01*
X163500000Y-9011904D01*
X163547619Y-8964285D01*
X163642857Y-8916666D01*
X163738095Y-8916666D01*
X163880952Y-8964285D01*
X164452380Y-9535714D01*
X164452380Y-8916666D01*
X175787142Y-26666666D02*
X175834761Y-26714285D01*
X175882380Y-26857142D01*
X175882380Y-26952380D01*
X175834761Y-27095238D01*
X175739523Y-27190476D01*
X175644285Y-27238095D01*
X175453809Y-27285714D01*
X175310952Y-27285714D01*
X175120476Y-27238095D01*
X175025238Y-27190476D01*
X174930000Y-27095238D01*
X174882380Y-26952380D01*
X174882380Y-26857142D01*
X174930000Y-26714285D01*
X174977619Y-26666666D01*
X175310952Y-26095238D02*
X175263333Y-26190476D01*
X175215714Y-26238095D01*
X175120476Y-26285714D01*
X175072857Y-26285714D01*
X174977619Y-26238095D01*
X174930000Y-26190476D01*
X174882380Y-26095238D01*
X174882380Y-25904761D01*
X174930000Y-25809523D01*
X174977619Y-25761904D01*
X175072857Y-25714285D01*
X175120476Y-25714285D01*
X175215714Y-25761904D01*
X175263333Y-25809523D01*
X175310952Y-25904761D01*
X175310952Y-26095238D01*
X175358571Y-26190476D01*
X175406190Y-26238095D01*
X175501428Y-26285714D01*
X175691904Y-26285714D01*
X175787142Y-26238095D01*
X175834761Y-26190476D01*
X175882380Y-26095238D01*
X175882380Y-25904761D01*
X175834761Y-25809523D01*
X175787142Y-25761904D01*
X175691904Y-25714285D01*
X175501428Y-25714285D01*
X175406190Y-25761904D01*
X175358571Y-25809523D01*
X175310952Y-25904761D01*
X162427142Y-14166666D02*
X162474761Y-14214285D01*
X162522380Y-14357142D01*
X162522380Y-14452380D01*
X162474761Y-14595238D01*
X162379523Y-14690476D01*
X162284285Y-14738095D01*
X162093809Y-14785714D01*
X161950952Y-14785714D01*
X161760476Y-14738095D01*
X161665238Y-14690476D01*
X161570000Y-14595238D01*
X161522380Y-14452380D01*
X161522380Y-14357142D01*
X161570000Y-14214285D01*
X161617619Y-14166666D01*
X161522380Y-13833333D02*
X161522380Y-13166666D01*
X162522380Y-13595238D01*
X140833333Y-84427142D02*
X140785714Y-84474761D01*
X140642857Y-84522380D01*
X140547619Y-84522380D01*
X140404761Y-84474761D01*
X140309523Y-84379523D01*
X140261904Y-84284285D01*
X140214285Y-84093809D01*
X140214285Y-83950952D01*
X140261904Y-83760476D01*
X140309523Y-83665238D01*
X140404761Y-83570000D01*
X140547619Y-83522380D01*
X140642857Y-83522380D01*
X140785714Y-83570000D01*
X140833333Y-83617619D01*
X141690476Y-83522380D02*
X141500000Y-83522380D01*
X141404761Y-83570000D01*
X141357142Y-83617619D01*
X141261904Y-83760476D01*
X141214285Y-83950952D01*
X141214285Y-84331904D01*
X141261904Y-84427142D01*
X141309523Y-84474761D01*
X141404761Y-84522380D01*
X141595238Y-84522380D01*
X141690476Y-84474761D01*
X141738095Y-84427142D01*
X141785714Y-84331904D01*
X141785714Y-84093809D01*
X141738095Y-83998571D01*
X141690476Y-83950952D01*
X141595238Y-83903333D01*
X141404761Y-83903333D01*
X141309523Y-83950952D01*
X141261904Y-83998571D01*
X141214285Y-84093809D01*
X131033333Y-84607142D02*
X130985714Y-84654761D01*
X130842857Y-84702380D01*
X130747619Y-84702380D01*
X130604761Y-84654761D01*
X130509523Y-84559523D01*
X130461904Y-84464285D01*
X130414285Y-84273809D01*
X130414285Y-84130952D01*
X130461904Y-83940476D01*
X130509523Y-83845238D01*
X130604761Y-83750000D01*
X130747619Y-83702380D01*
X130842857Y-83702380D01*
X130985714Y-83750000D01*
X131033333Y-83797619D01*
X131938095Y-83702380D02*
X131461904Y-83702380D01*
X131414285Y-84178571D01*
X131461904Y-84130952D01*
X131557142Y-84083333D01*
X131795238Y-84083333D01*
X131890476Y-84130952D01*
X131938095Y-84178571D01*
X131985714Y-84273809D01*
X131985714Y-84511904D01*
X131938095Y-84607142D01*
X131890476Y-84654761D01*
X131795238Y-84702380D01*
X131557142Y-84702380D01*
X131461904Y-84654761D01*
X131414285Y-84607142D01*
X164404761Y-20083333D02*
X164452380Y-19940476D01*
X164452380Y-19702380D01*
X164404761Y-19607142D01*
X164357142Y-19559523D01*
X164261904Y-19511904D01*
X164166666Y-19511904D01*
X164071428Y-19559523D01*
X164023809Y-19607142D01*
X163976190Y-19702380D01*
X163928571Y-19892857D01*
X163880952Y-19988095D01*
X163833333Y-20035714D01*
X163738095Y-20083333D01*
X163642857Y-20083333D01*
X163547619Y-20035714D01*
X163500000Y-19988095D01*
X163452380Y-19892857D01*
X163452380Y-19654761D01*
X163500000Y-19511904D01*
X163452380Y-19178571D02*
X164452380Y-18940476D01*
X163738095Y-18750000D01*
X164452380Y-18559523D01*
X163452380Y-18321428D01*
X164452380Y-17416666D02*
X164452380Y-17988095D01*
X164452380Y-17702380D02*
X163452380Y-17702380D01*
X163595238Y-17797619D01*
X163690476Y-17892857D01*
X163738095Y-17988095D01*
X158011904Y-31702380D02*
X158011904Y-30702380D01*
X158250000Y-30702380D01*
X158392857Y-30750000D01*
X158488095Y-30845238D01*
X158535714Y-30940476D01*
X158583333Y-31130952D01*
X158583333Y-31273809D01*
X158535714Y-31464285D01*
X158488095Y-31559523D01*
X158392857Y-31654761D01*
X158250000Y-31702380D01*
X158011904Y-31702380D01*
X158964285Y-30797619D02*
X159011904Y-30750000D01*
X159107142Y-30702380D01*
X159345238Y-30702380D01*
X159440476Y-30750000D01*
X159488095Y-30797619D01*
X159535714Y-30892857D01*
X159535714Y-30988095D01*
X159488095Y-31130952D01*
X158916666Y-31702380D01*
X159535714Y-31702380D01*
X158011904Y-24902380D02*
X158011904Y-23902380D01*
X158250000Y-23902380D01*
X158392857Y-23950000D01*
X158488095Y-24045238D01*
X158535714Y-24140476D01*
X158583333Y-24330952D01*
X158583333Y-24473809D01*
X158535714Y-24664285D01*
X158488095Y-24759523D01*
X158392857Y-24854761D01*
X158250000Y-24902380D01*
X158011904Y-24902380D01*
X159535714Y-24902380D02*
X158964285Y-24902380D01*
X159250000Y-24902380D02*
X159250000Y-23902380D01*
X159154761Y-24045238D01*
X159059523Y-24140476D01*
X158964285Y-24188095D01*
X146666666Y-22952380D02*
X146666666Y-23666666D01*
X146619047Y-23809523D01*
X146523809Y-23904761D01*
X146380952Y-23952380D01*
X146285714Y-23952380D01*
X147285714Y-23380952D02*
X147190476Y-23333333D01*
X147142857Y-23285714D01*
X147095238Y-23190476D01*
X147095238Y-23142857D01*
X147142857Y-23047619D01*
X147190476Y-23000000D01*
X147285714Y-22952380D01*
X147476190Y-22952380D01*
X147571428Y-23000000D01*
X147619047Y-23047619D01*
X147666666Y-23142857D01*
X147666666Y-23190476D01*
X147619047Y-23285714D01*
X147571428Y-23333333D01*
X147476190Y-23380952D01*
X147285714Y-23380952D01*
X147190476Y-23428571D01*
X147142857Y-23476190D01*
X147095238Y-23571428D01*
X147095238Y-23761904D01*
X147142857Y-23857142D01*
X147190476Y-23904761D01*
X147285714Y-23952380D01*
X147476190Y-23952380D01*
X147571428Y-23904761D01*
X147619047Y-23857142D01*
X147666666Y-23761904D01*
X147666666Y-23571428D01*
X147619047Y-23476190D01*
X147571428Y-23428571D01*
X147476190Y-23380952D01*
X153838095Y-70822380D02*
X153838095Y-71631904D01*
X153885714Y-71727142D01*
X153933333Y-71774761D01*
X154028571Y-71822380D01*
X154219047Y-71822380D01*
X154314285Y-71774761D01*
X154361904Y-71727142D01*
X154409523Y-71631904D01*
X154409523Y-70822380D01*
X154838095Y-70917619D02*
X154885714Y-70870000D01*
X154980952Y-70822380D01*
X155219047Y-70822380D01*
X155314285Y-70870000D01*
X155361904Y-70917619D01*
X155409523Y-71012857D01*
X155409523Y-71108095D01*
X155361904Y-71250952D01*
X154790476Y-71822380D01*
X155409523Y-71822380D01*
X134033333Y-84622380D02*
X133700000Y-84146190D01*
X133461904Y-84622380D02*
X133461904Y-83622380D01*
X133842857Y-83622380D01*
X133938095Y-83670000D01*
X133985714Y-83717619D01*
X134033333Y-83812857D01*
X134033333Y-83955714D01*
X133985714Y-84050952D01*
X133938095Y-84098571D01*
X133842857Y-84146190D01*
X133461904Y-84146190D01*
X134414285Y-83717619D02*
X134461904Y-83670000D01*
X134557142Y-83622380D01*
X134795238Y-83622380D01*
X134890476Y-83670000D01*
X134938095Y-83717619D01*
X134985714Y-83812857D01*
X134985714Y-83908095D01*
X134938095Y-84050952D01*
X134366666Y-84622380D01*
X134985714Y-84622380D01*
X137833333Y-84702380D02*
X137500000Y-84226190D01*
X137261904Y-84702380D02*
X137261904Y-83702380D01*
X137642857Y-83702380D01*
X137738095Y-83750000D01*
X137785714Y-83797619D01*
X137833333Y-83892857D01*
X137833333Y-84035714D01*
X137785714Y-84130952D01*
X137738095Y-84178571D01*
X137642857Y-84226190D01*
X137261904Y-84226190D01*
X138785714Y-84702380D02*
X138214285Y-84702380D01*
X138500000Y-84702380D02*
X138500000Y-83702380D01*
X138404761Y-83845238D01*
X138309523Y-83940476D01*
X138214285Y-83988095D01*
X140483333Y-90311904D02*
X140483333Y-90883333D01*
X140445238Y-90997619D01*
X140369047Y-91073809D01*
X140254761Y-91111904D01*
X140178571Y-91111904D01*
X140788095Y-90311904D02*
X141321428Y-90311904D01*
X140978571Y-91111904D01*
X128166666Y-84952380D02*
X128166666Y-85666666D01*
X128119047Y-85809523D01*
X128023809Y-85904761D01*
X127880952Y-85952380D01*
X127785714Y-85952380D01*
X129071428Y-84952380D02*
X128880952Y-84952380D01*
X128785714Y-85000000D01*
X128738095Y-85047619D01*
X128642857Y-85190476D01*
X128595238Y-85380952D01*
X128595238Y-85761904D01*
X128642857Y-85857142D01*
X128690476Y-85904761D01*
X128785714Y-85952380D01*
X128976190Y-85952380D01*
X129071428Y-85904761D01*
X129119047Y-85857142D01*
X129166666Y-85761904D01*
X129166666Y-85523809D01*
X129119047Y-85428571D01*
X129071428Y-85380952D01*
X128976190Y-85333333D01*
X128785714Y-85333333D01*
X128690476Y-85380952D01*
X128642857Y-85428571D01*
X128595238Y-85523809D01*
X123702380Y-53083333D02*
X124416666Y-53083333D01*
X124559523Y-53130952D01*
X124654761Y-53226190D01*
X124702380Y-53369047D01*
X124702380Y-53464285D01*
X123702380Y-52130952D02*
X123702380Y-52607142D01*
X124178571Y-52654761D01*
X124130952Y-52607142D01*
X124083333Y-52511904D01*
X124083333Y-52273809D01*
X124130952Y-52178571D01*
X124178571Y-52130952D01*
X124273809Y-52083333D01*
X124511904Y-52083333D01*
X124607142Y-52130952D01*
X124654761Y-52178571D01*
X124702380Y-52273809D01*
X124702380Y-52511904D01*
X124654761Y-52607142D01*
X124607142Y-52654761D01*
X123702380Y-49083333D02*
X124416666Y-49083333D01*
X124559523Y-49130952D01*
X124654761Y-49226190D01*
X124702380Y-49369047D01*
X124702380Y-49464285D01*
X124035714Y-48178571D02*
X124702380Y-48178571D01*
X123654761Y-48416666D02*
X124369047Y-48654761D01*
X124369047Y-48035714D01*
X170452380Y-56833333D02*
X171166666Y-56833333D01*
X171309523Y-56880952D01*
X171404761Y-56976190D01*
X171452380Y-57119047D01*
X171452380Y-57214285D01*
X171452380Y-55833333D02*
X171452380Y-56404761D01*
X171452380Y-56119047D02*
X170452380Y-56119047D01*
X170595238Y-56214285D01*
X170690476Y-56309523D01*
X170738095Y-56404761D01*
X163666666Y-74452380D02*
X163666666Y-75166666D01*
X163619047Y-75309523D01*
X163523809Y-75404761D01*
X163380952Y-75452380D01*
X163285714Y-75452380D01*
X164047619Y-74452380D02*
X164666666Y-74452380D01*
X164333333Y-74833333D01*
X164476190Y-74833333D01*
X164571428Y-74880952D01*
X164619047Y-74928571D01*
X164666666Y-75023809D01*
X164666666Y-75261904D01*
X164619047Y-75357142D01*
X164571428Y-75404761D01*
X164476190Y-75452380D01*
X164190476Y-75452380D01*
X164095238Y-75404761D01*
X164047619Y-75357142D01*
X170452380Y-67083333D02*
X171166666Y-67083333D01*
X171309523Y-67130952D01*
X171404761Y-67226190D01*
X171452380Y-67369047D01*
X171452380Y-67464285D01*
X170547619Y-66654761D02*
X170500000Y-66607142D01*
X170452380Y-66511904D01*
X170452380Y-66273809D01*
X170500000Y-66178571D01*
X170547619Y-66130952D01*
X170642857Y-66083333D01*
X170738095Y-66083333D01*
X170880952Y-66130952D01*
X171452380Y-66702380D01*
X171452380Y-66083333D01*
X161333333Y-35521180D02*
X161285714Y-35568799D01*
X161142857Y-35616418D01*
X161047619Y-35616418D01*
X160904761Y-35568799D01*
X160809523Y-35473561D01*
X160761904Y-35378323D01*
X160714285Y-35187847D01*
X160714285Y-35044990D01*
X160761904Y-34854514D01*
X160809523Y-34759276D01*
X160904761Y-34664038D01*
X161047619Y-34616418D01*
X161142857Y-34616418D01*
X161285714Y-34664038D01*
X161333333Y-34711657D01*
X161714285Y-34711657D02*
X161761904Y-34664038D01*
X161857142Y-34616418D01*
X162095238Y-34616418D01*
X162190476Y-34664038D01*
X162238095Y-34711657D01*
X162285714Y-34806895D01*
X162285714Y-34902133D01*
X162238095Y-35044990D01*
X161666666Y-35616418D01*
X162285714Y-35616418D01*
X158583333Y-8957142D02*
X158535714Y-9004761D01*
X158392857Y-9052380D01*
X158297619Y-9052380D01*
X158154761Y-9004761D01*
X158059523Y-8909523D01*
X158011904Y-8814285D01*
X157964285Y-8623809D01*
X157964285Y-8480952D01*
X158011904Y-8290476D01*
X158059523Y-8195238D01*
X158154761Y-8100000D01*
X158297619Y-8052380D01*
X158392857Y-8052380D01*
X158535714Y-8100000D01*
X158583333Y-8147619D01*
X159535714Y-9052380D02*
X158964285Y-9052380D01*
X159250000Y-9052380D02*
X159250000Y-8052380D01*
X159154761Y-8195238D01*
X159059523Y-8290476D01*
X158964285Y-8338095D01*
D12*
X122350000Y-13800000D02*
X122350000Y-11200000D01*
X128650000Y-9050000D02*
X128650000Y-9300000D01*
X122350000Y-9050000D02*
X128650000Y-9050000D01*
X122350000Y-9300000D02*
X122350000Y-9050000D01*
X128650000Y-11200000D02*
X128650000Y-13800000D01*
X122350000Y-15950000D02*
X122350000Y-15700000D01*
X128650000Y-15950000D02*
X122350000Y-15950000D01*
X128650000Y-15700000D02*
X128650000Y-15950000D01*
X122350000Y-22300000D02*
X122350000Y-19700000D01*
X128650000Y-17550000D02*
X128650000Y-17800000D01*
X122350000Y-17550000D02*
X128650000Y-17550000D01*
X122350000Y-17800000D02*
X122350000Y-17550000D01*
X128650000Y-19700000D02*
X128650000Y-22300000D01*
X122350000Y-24450000D02*
X122350000Y-24200000D01*
X128650000Y-24450000D02*
X122350000Y-24450000D01*
X128650000Y-24200000D02*
X128650000Y-24450000D01*
X124760000Y-65662779D02*
X124760000Y-65337221D01*
X123740000Y-65662779D02*
X123740000Y-65337221D01*
X123740000Y-61837221D02*
X123740000Y-62162779D01*
X124760000Y-61837221D02*
X124760000Y-62162779D01*
X119815000Y-65960000D02*
X122500000Y-65960000D01*
X119815000Y-64040000D02*
X119815000Y-65960000D01*
X122500000Y-64040000D02*
X119815000Y-64040000D01*
X119815000Y-63460000D02*
X122500000Y-63460000D01*
X119815000Y-61540000D02*
X119815000Y-63460000D01*
X122500000Y-61540000D02*
X119815000Y-61540000D01*
X132510000Y-14162779D02*
X132510000Y-13837221D01*
X131490000Y-14162779D02*
X131490000Y-13837221D01*
X132510000Y-22662779D02*
X132510000Y-22337221D01*
X131490000Y-22662779D02*
X131490000Y-22337221D01*
X157490000Y-85237221D02*
X157490000Y-85562779D01*
X158510000Y-85237221D02*
X158510000Y-85562779D01*
X159890000Y-85237221D02*
X159890000Y-85562779D01*
X160910000Y-85237221D02*
X160910000Y-85562779D01*
X159160000Y-90385000D02*
X159160000Y-87700000D01*
X157240000Y-90385000D02*
X159160000Y-90385000D01*
X157240000Y-87700000D02*
X157240000Y-90385000D01*
X161560000Y-90385000D02*
X161560000Y-87700000D01*
X159640000Y-90385000D02*
X161560000Y-90385000D01*
X159640000Y-87700000D02*
X159640000Y-90385000D01*
X166850000Y-13800000D02*
X166850000Y-11200000D01*
X173150000Y-9050000D02*
X173150000Y-9300000D01*
X166850000Y-9050000D02*
X173150000Y-9050000D01*
X166850000Y-9300000D02*
X166850000Y-9050000D01*
X173150000Y-11200000D02*
X173150000Y-13800000D01*
X166850000Y-15950000D02*
X166850000Y-15700000D01*
X173150000Y-15950000D02*
X166850000Y-15950000D01*
X173150000Y-15700000D02*
X173150000Y-15950000D01*
X173490000Y-26337221D02*
X173490000Y-26662779D01*
X174510000Y-26337221D02*
X174510000Y-26662779D01*
X164010000Y-14162779D02*
X164010000Y-13837221D01*
X162990000Y-14162779D02*
X162990000Y-13837221D01*
X141437221Y-86010000D02*
X141762779Y-86010000D01*
X141437221Y-84990000D02*
X141762779Y-84990000D01*
X131362779Y-85090000D02*
X131037221Y-85090000D01*
X131362779Y-86110000D02*
X131037221Y-86110000D01*
X166850000Y-22300000D02*
X166850000Y-19700000D01*
X173150000Y-17550000D02*
X173150000Y-17800000D01*
X166850000Y-17550000D02*
X173150000Y-17550000D01*
X166850000Y-17800000D02*
X166850000Y-17550000D01*
X173150000Y-19700000D02*
X173150000Y-22300000D01*
X166850000Y-24450000D02*
X166850000Y-24200000D01*
X173150000Y-24450000D02*
X166850000Y-24450000D01*
X173150000Y-24200000D02*
X173150000Y-24450000D01*
X157715000Y-30135000D02*
X161600000Y-30135000D01*
X157715000Y-27865000D02*
X157715000Y-30135000D01*
X161600000Y-27865000D02*
X157715000Y-27865000D01*
X162285000Y-25365000D02*
X158400000Y-25365000D01*
X162285000Y-27635000D02*
X162285000Y-25365000D01*
X158400000Y-27635000D02*
X162285000Y-27635000D01*
X141980000Y-22020000D02*
X141980000Y-20750000D01*
X143250000Y-22020000D02*
X141980000Y-22020000D01*
X151250000Y-19707071D02*
X151250000Y-19252929D01*
X150490000Y-19707071D02*
X150490000Y-19252929D01*
X151250000Y-17167071D02*
X151250000Y-16770000D01*
X150490000Y-17167071D02*
X150490000Y-16770000D01*
X151250000Y-8110000D02*
X151250000Y-14110000D01*
X150490000Y-8110000D02*
X151250000Y-8110000D01*
X150490000Y-14110000D02*
X150490000Y-8110000D01*
X149600000Y-16770000D02*
X149600000Y-14110000D01*
X148710000Y-19707071D02*
X148710000Y-19252929D01*
X147950000Y-19707071D02*
X147950000Y-19252929D01*
X148710000Y-17167071D02*
X148710000Y-16770000D01*
X147950000Y-17167071D02*
X147950000Y-16770000D01*
X148710000Y-8110000D02*
X148710000Y-14110000D01*
X147950000Y-8110000D02*
X148710000Y-8110000D01*
X147950000Y-14110000D02*
X147950000Y-8110000D01*
X147060000Y-16770000D02*
X147060000Y-14110000D01*
X146170000Y-19707071D02*
X146170000Y-19252929D01*
X145410000Y-19707071D02*
X145410000Y-19252929D01*
X146170000Y-17167071D02*
X146170000Y-16770000D01*
X145410000Y-17167071D02*
X145410000Y-16770000D01*
X146170000Y-8110000D02*
X146170000Y-14110000D01*
X145410000Y-8110000D02*
X146170000Y-8110000D01*
X145410000Y-14110000D02*
X145410000Y-8110000D01*
X144520000Y-16770000D02*
X144520000Y-14110000D01*
X143630000Y-19640000D02*
X143630000Y-19252929D01*
X142870000Y-19640000D02*
X142870000Y-19252929D01*
X143630000Y-17167071D02*
X143630000Y-16770000D01*
X142870000Y-17167071D02*
X142870000Y-16770000D01*
X143530000Y-14110000D02*
X143530000Y-8110000D01*
X143410000Y-14110000D02*
X143410000Y-8110000D01*
X143290000Y-14110000D02*
X143290000Y-8110000D01*
X143170000Y-14110000D02*
X143170000Y-8110000D01*
X143050000Y-14110000D02*
X143050000Y-8110000D01*
X142930000Y-14110000D02*
X142930000Y-8110000D01*
X143630000Y-8110000D02*
X143630000Y-14110000D01*
X142870000Y-8110000D02*
X143630000Y-8110000D01*
X142870000Y-14110000D02*
X142870000Y-8110000D01*
X141920000Y-14110000D02*
X141920000Y-16770000D01*
X152200000Y-14110000D02*
X141920000Y-14110000D01*
X152200000Y-16770000D02*
X152200000Y-14110000D01*
X141920000Y-16770000D02*
X152200000Y-16770000D01*
X137836000Y-70124000D02*
X137836000Y-8656000D01*
X137836000Y-8656000D02*
X140884000Y-8656000D01*
X140884000Y-70124000D02*
X137836000Y-70124000D01*
X140884000Y-8656000D02*
X140884000Y-70124000D01*
X156124000Y-8656000D02*
X156124000Y-70124000D01*
X153076000Y-8656000D02*
X156124000Y-8656000D01*
X153076000Y-70124000D02*
X153076000Y-8656000D01*
X156124000Y-70124000D02*
X153076000Y-70124000D01*
X134037221Y-86110000D02*
X134362779Y-86110000D01*
X134037221Y-85090000D02*
X134362779Y-85090000D01*
X138162779Y-85090000D02*
X137837221Y-85090000D01*
X138162779Y-86110000D02*
X137837221Y-86110000D01*
X140670000Y-89530000D02*
X140670000Y-88200000D01*
X142000000Y-89530000D02*
X140670000Y-89530000D01*
X143270000Y-89530000D02*
X143270000Y-86870000D01*
X143270000Y-86870000D02*
X156030000Y-86870000D01*
X143270000Y-89530000D02*
X156030000Y-89530000D01*
X156030000Y-89530000D02*
X156030000Y-86870000D01*
X128170000Y-89530000D02*
X128170000Y-88200000D01*
X129500000Y-89530000D02*
X128170000Y-89530000D01*
X130770000Y-89530000D02*
X130770000Y-86870000D01*
X130770000Y-86870000D02*
X138450000Y-86870000D01*
X130770000Y-89530000D02*
X138450000Y-89530000D01*
X138450000Y-89530000D02*
X138450000Y-86870000D01*
X122830000Y-49830000D02*
X121500000Y-49830000D01*
X122830000Y-48500000D02*
X122830000Y-49830000D01*
X122830000Y-47230000D02*
X120170000Y-47230000D01*
X120170000Y-47230000D02*
X120170000Y-42090000D01*
X122830000Y-47230000D02*
X122830000Y-42090000D01*
X122830000Y-42090000D02*
X120170000Y-42090000D01*
X120170000Y-51670000D02*
X121500000Y-51670000D01*
X120170000Y-53000000D02*
X120170000Y-51670000D01*
X120170000Y-54270000D02*
X122830000Y-54270000D01*
X122830000Y-54270000D02*
X122830000Y-59410000D01*
X120170000Y-54270000D02*
X120170000Y-59410000D01*
X120170000Y-59410000D02*
X122830000Y-59410000D01*
X175030000Y-63830000D02*
X173700000Y-63830000D01*
X175030000Y-62500000D02*
X175030000Y-63830000D01*
X175030000Y-61230000D02*
X172370000Y-61230000D01*
X172370000Y-61230000D02*
X172370000Y-56090000D01*
X175030000Y-61230000D02*
X175030000Y-56090000D01*
X175030000Y-56090000D02*
X172370000Y-56090000D01*
X178310000Y-78000000D02*
G75*
G03*
X177810000Y-77500000I-500000J0D01*
G01*
X177810000Y-88500000D02*
G75*
G03*
X178310000Y-88000000I0J500000D01*
G01*
X176810000Y-76090000D02*
X176410000Y-76090000D01*
X173890000Y-76090000D02*
X168110000Y-76090000D01*
X165590000Y-76090000D02*
X162890000Y-76090000D01*
X173890000Y-89910000D02*
X168110000Y-89910000D01*
X176810000Y-89910000D02*
X176410000Y-89910000D01*
X165590000Y-89910000D02*
X162890000Y-89910000D01*
X162890000Y-89910000D02*
X162890000Y-76090000D01*
X176810000Y-76090000D02*
X176810000Y-89910000D01*
X176810000Y-88500000D02*
X177810000Y-88500000D01*
X176810000Y-77500000D02*
X177810000Y-77500000D01*
X178310000Y-78000000D02*
X178310000Y-88000000D01*
X177710000Y-77500000D02*
X177510000Y-78300000D01*
X177510000Y-78300000D02*
X177210000Y-80000000D01*
X177210000Y-80000000D02*
X177110000Y-80800000D01*
X177110000Y-80800000D02*
X177010000Y-82100000D01*
X177010000Y-82100000D02*
X177010000Y-83900000D01*
X177010000Y-83900000D02*
X177110000Y-85200000D01*
X177110000Y-85200000D02*
X177310000Y-86700000D01*
X177310000Y-86700000D02*
X177610000Y-88000000D01*
X177610000Y-88000000D02*
X177710000Y-88500000D01*
X172370000Y-66070000D02*
X173700000Y-66070000D01*
X172370000Y-67400000D02*
X172370000Y-66070000D01*
X172370000Y-68670000D02*
X175030000Y-68670000D01*
X175030000Y-68670000D02*
X175030000Y-73810000D01*
X172370000Y-68670000D02*
X172370000Y-73810000D01*
X172370000Y-73810000D02*
X175030000Y-73810000D01*
X161758578Y-32804038D02*
X161241422Y-32804038D01*
X161758578Y-34224038D02*
X161241422Y-34224038D01*
X158491422Y-10960000D02*
X159008578Y-10960000D01*
X158491422Y-9540000D02*
X159008578Y-9540000D01*
M02*
