G04 #@! TF.GenerationSoftware,KiCad,Pcbnew,(5.99.0-2378-g637571e0b-dirty)*
G04 #@! TF.CreationDate,2020-07-24T22:12:37+02:00*
G04 #@! TF.ProjectId,stm32f4_fpga,73746d33-3266-4345-9f66-7067612e6b69,rev?*
G04 #@! TF.SameCoordinates,Original*
G04 #@! TF.FileFunction,Soldermask,Bot*
G04 #@! TF.FilePolarity,Negative*
%FSLAX46Y46*%
G04 Gerber Fmt 4.6, Leading zero omitted, Abs format (unit mm)*
G04 Created by KiCad (PCBNEW (5.99.0-2378-g637571e0b-dirty)) date 2020-07-24 22:12:37*
%MOMM*%
%LPD*%
G01*
G04 APERTURE LIST*
%ADD10O,3.000000X3.000000*%
%ADD11O,1.800000X1.800000*%
%ADD12R,1.800000X1.800000*%
%ADD13O,1.700000X1.700000*%
%ADD14R,1.700000X1.700000*%
%ADD15O,2.300000X1.700000*%
%ADD16R,2.300000X1.700000*%
G04 APERTURE END LIST*
G36*
G01*
X168550000Y-83743750D02*
X168550000Y-84256250D01*
G75*
G02*
X168331250Y-84475000I-218750J0D01*
G01*
X167893750Y-84475000D01*
G75*
G02*
X167675000Y-84256250I0J218750D01*
G01*
X167675000Y-83743750D01*
G75*
G02*
X167893750Y-83525000I218750J0D01*
G01*
X168331250Y-83525000D01*
G75*
G02*
X168550000Y-83743750I0J-218750D01*
G01*
G37*
G36*
G01*
X170125000Y-83743750D02*
X170125000Y-84256250D01*
G75*
G02*
X169906250Y-84475000I-218750J0D01*
G01*
X169468750Y-84475000D01*
G75*
G02*
X169250000Y-84256250I0J218750D01*
G01*
X169250000Y-83743750D01*
G75*
G02*
X169468750Y-83525000I218750J0D01*
G01*
X169906250Y-83525000D01*
G75*
G02*
X170125000Y-83743750I0J-218750D01*
G01*
G37*
D10*
X126860000Y-83130000D03*
X167640000Y-29210000D03*
X126720000Y-29210000D03*
D11*
X159880000Y-82470000D03*
X139560000Y-82470000D03*
X144640000Y-82470000D03*
X134480000Y-82470000D03*
X137020000Y-79930000D03*
X137020000Y-82470000D03*
X134480000Y-79930000D03*
X142100000Y-82470000D03*
X157340000Y-79930000D03*
X131940000Y-79930000D03*
X154800000Y-82470000D03*
X154800000Y-79930000D03*
X149720000Y-82470000D03*
X159880000Y-79930000D03*
X147180000Y-79930000D03*
X147180000Y-82470000D03*
X144640000Y-79930000D03*
X142100000Y-79930000D03*
X152260000Y-79930000D03*
X139560000Y-79930000D03*
X149720000Y-79930000D03*
X152260000Y-82470000D03*
D12*
X131940000Y-82470000D03*
D11*
X157340000Y-82470000D03*
X167500000Y-44530000D03*
X167500000Y-64850000D03*
X167500000Y-59770000D03*
X167500000Y-69930000D03*
X164960000Y-67390000D03*
X167500000Y-67390000D03*
X164960000Y-69930000D03*
X167500000Y-41990000D03*
X167500000Y-34370000D03*
X167500000Y-62310000D03*
X167500000Y-36910000D03*
X164960000Y-47070000D03*
X164960000Y-39450000D03*
X164960000Y-72470000D03*
X167500000Y-49610000D03*
X164960000Y-49610000D03*
X167500000Y-54690000D03*
X164960000Y-44530000D03*
X164960000Y-57230000D03*
X164960000Y-34370000D03*
X164960000Y-36910000D03*
X167500000Y-57230000D03*
X164960000Y-59770000D03*
X164960000Y-62310000D03*
X164960000Y-52150000D03*
X167500000Y-39450000D03*
X164960000Y-64850000D03*
X164960000Y-54690000D03*
X167500000Y-52150000D03*
D12*
X167500000Y-72470000D03*
D11*
X167500000Y-47070000D03*
X164960000Y-41990000D03*
X129400000Y-77390000D03*
X126860000Y-77390000D03*
X129400000Y-74850000D03*
X126860000Y-74850000D03*
X129400000Y-72310000D03*
X126860000Y-72310000D03*
X129400000Y-69770000D03*
X126860000Y-69770000D03*
X129400000Y-67230000D03*
X126860000Y-67230000D03*
X129400000Y-64690000D03*
X126860000Y-64690000D03*
X129400000Y-62150000D03*
X126860000Y-62150000D03*
X129400000Y-59610000D03*
X126860000Y-59610000D03*
X129400000Y-57070000D03*
X126860000Y-57070000D03*
X129400000Y-54530000D03*
X126860000Y-54530000D03*
X129400000Y-51990000D03*
X126860000Y-51990000D03*
X129400000Y-49450000D03*
X126860000Y-49450000D03*
X129400000Y-46910000D03*
X126860000Y-46910000D03*
X129400000Y-44370000D03*
X126860000Y-44370000D03*
X129400000Y-41830000D03*
X126860000Y-41830000D03*
X129400000Y-39290000D03*
X126860000Y-39290000D03*
X129400000Y-36750000D03*
X126860000Y-36750000D03*
X129400000Y-34210000D03*
D12*
X126860000Y-34210000D03*
D13*
X150870000Y-18210000D03*
X150870000Y-20750000D03*
X148330000Y-18210000D03*
X148330000Y-20750000D03*
X145790000Y-18210000D03*
X145790000Y-20750000D03*
X143250000Y-18210000D03*
D14*
X143250000Y-20750000D03*
D15*
X139360000Y-10180000D03*
X139360000Y-12720000D03*
X139360000Y-15260000D03*
X139360000Y-17800000D03*
X139360000Y-20340000D03*
X139360000Y-22880000D03*
X139360000Y-25420000D03*
X139360000Y-27960000D03*
X139360000Y-30500000D03*
X139360000Y-33040000D03*
X139360000Y-35580000D03*
X139360000Y-38120000D03*
X139360000Y-40660000D03*
X139360000Y-43200000D03*
X139360000Y-45740000D03*
X139360000Y-48280000D03*
X139360000Y-63520000D03*
X139360000Y-66060000D03*
X139360000Y-68600000D03*
X139360000Y-50820000D03*
X139360000Y-53360000D03*
X139360000Y-55900000D03*
X139360000Y-58440000D03*
X139360000Y-60980000D03*
X154600000Y-10180000D03*
X154600000Y-12720000D03*
X154600000Y-15260000D03*
X154600000Y-17800000D03*
X154600000Y-20340000D03*
X154600000Y-22880000D03*
X154600000Y-25420000D03*
X154600000Y-27960000D03*
X154600000Y-30500000D03*
X154600000Y-33040000D03*
X154600000Y-35580000D03*
X154600000Y-38120000D03*
X154600000Y-40660000D03*
X154600000Y-43200000D03*
X154600000Y-45740000D03*
X154600000Y-48280000D03*
X154600000Y-50820000D03*
X154600000Y-53360000D03*
X154600000Y-55900000D03*
X154600000Y-58440000D03*
X154600000Y-60980000D03*
X154600000Y-63520000D03*
X154600000Y-66060000D03*
D16*
X154600000Y-68600000D03*
G36*
G01*
X169450000Y-79456250D02*
X169450000Y-78943750D01*
G75*
G02*
X169668750Y-78725000I218750J0D01*
G01*
X170106250Y-78725000D01*
G75*
G02*
X170325000Y-78943750I0J-218750D01*
G01*
X170325000Y-79456250D01*
G75*
G02*
X170106250Y-79675000I-218750J0D01*
G01*
X169668750Y-79675000D01*
G75*
G02*
X169450000Y-79456250I0J218750D01*
G01*
G37*
G36*
G01*
X167875000Y-79456250D02*
X167875000Y-78943750D01*
G75*
G02*
X168093750Y-78725000I218750J0D01*
G01*
X168531250Y-78725000D01*
G75*
G02*
X168750000Y-78943750I0J-218750D01*
G01*
X168750000Y-79456250D01*
G75*
G02*
X168531250Y-79675000I-218750J0D01*
G01*
X168093750Y-79675000D01*
G75*
G02*
X167875000Y-79456250I0J218750D01*
G01*
G37*
G36*
G01*
X169450000Y-80956250D02*
X169450000Y-80443750D01*
G75*
G02*
X169668750Y-80225000I218750J0D01*
G01*
X170106250Y-80225000D01*
G75*
G02*
X170325000Y-80443750I0J-218750D01*
G01*
X170325000Y-80956250D01*
G75*
G02*
X170106250Y-81175000I-218750J0D01*
G01*
X169668750Y-81175000D01*
G75*
G02*
X169450000Y-80956250I0J218750D01*
G01*
G37*
G36*
G01*
X167875000Y-80956250D02*
X167875000Y-80443750D01*
G75*
G02*
X168093750Y-80225000I218750J0D01*
G01*
X168531250Y-80225000D01*
G75*
G02*
X168750000Y-80443750I0J-218750D01*
G01*
X168750000Y-80956250D01*
G75*
G02*
X168531250Y-81175000I-218750J0D01*
G01*
X168093750Y-81175000D01*
G75*
G02*
X167875000Y-80956250I0J218750D01*
G01*
G37*
G36*
G01*
X169450000Y-82456250D02*
X169450000Y-81943750D01*
G75*
G02*
X169668750Y-81725000I218750J0D01*
G01*
X170106250Y-81725000D01*
G75*
G02*
X170325000Y-81943750I0J-218750D01*
G01*
X170325000Y-82456250D01*
G75*
G02*
X170106250Y-82675000I-218750J0D01*
G01*
X169668750Y-82675000D01*
G75*
G02*
X169450000Y-82456250I0J218750D01*
G01*
G37*
G36*
G01*
X167875000Y-82456250D02*
X167875000Y-81943750D01*
G75*
G02*
X168093750Y-81725000I218750J0D01*
G01*
X168531250Y-81725000D01*
G75*
G02*
X168750000Y-81943750I0J-218750D01*
G01*
X168750000Y-82456250D01*
G75*
G02*
X168531250Y-82675000I-218750J0D01*
G01*
X168093750Y-82675000D01*
G75*
G02*
X167875000Y-82456250I0J218750D01*
G01*
G37*
G36*
G01*
X169450000Y-86256250D02*
X169450000Y-85743750D01*
G75*
G02*
X169668750Y-85525000I218750J0D01*
G01*
X170106250Y-85525000D01*
G75*
G02*
X170325000Y-85743750I0J-218750D01*
G01*
X170325000Y-86256250D01*
G75*
G02*
X170106250Y-86475000I-218750J0D01*
G01*
X169668750Y-86475000D01*
G75*
G02*
X169450000Y-86256250I0J218750D01*
G01*
G37*
G36*
G01*
X167875000Y-86256250D02*
X167875000Y-85743750D01*
G75*
G02*
X168093750Y-85525000I218750J0D01*
G01*
X168531250Y-85525000D01*
G75*
G02*
X168750000Y-85743750I0J-218750D01*
G01*
X168750000Y-86256250D01*
G75*
G02*
X168531250Y-86475000I-218750J0D01*
G01*
X168093750Y-86475000D01*
G75*
G02*
X167875000Y-86256250I0J218750D01*
G01*
G37*
G36*
G01*
X169450000Y-87756250D02*
X169450000Y-87243750D01*
G75*
G02*
X169668750Y-87025000I218750J0D01*
G01*
X170106250Y-87025000D01*
G75*
G02*
X170325000Y-87243750I0J-218750D01*
G01*
X170325000Y-87756250D01*
G75*
G02*
X170106250Y-87975000I-218750J0D01*
G01*
X169668750Y-87975000D01*
G75*
G02*
X169450000Y-87756250I0J218750D01*
G01*
G37*
G36*
G01*
X167875000Y-87756250D02*
X167875000Y-87243750D01*
G75*
G02*
X168093750Y-87025000I218750J0D01*
G01*
X168531250Y-87025000D01*
G75*
G02*
X168750000Y-87243750I0J-218750D01*
G01*
X168750000Y-87756250D01*
G75*
G02*
X168531250Y-87975000I-218750J0D01*
G01*
X168093750Y-87975000D01*
G75*
G02*
X167875000Y-87756250I0J218750D01*
G01*
G37*
D13*
X154700000Y-88200000D03*
X152160000Y-88200000D03*
X149620000Y-88200000D03*
X147080000Y-88200000D03*
X144540000Y-88200000D03*
D14*
X142000000Y-88200000D03*
D13*
X137120000Y-88200000D03*
X134580000Y-88200000D03*
X132040000Y-88200000D03*
D14*
X129500000Y-88200000D03*
D13*
X121500000Y-43420000D03*
X121500000Y-45960000D03*
D14*
X121500000Y-48500000D03*
D13*
X121500000Y-58080000D03*
X121500000Y-55540000D03*
D14*
X121500000Y-53000000D03*
G36*
G01*
X173850000Y-84456250D02*
X173850000Y-83543750D01*
G75*
G02*
X174093750Y-83300000I243750J0D01*
G01*
X174581250Y-83300000D01*
G75*
G02*
X174825000Y-83543750I0J-243750D01*
G01*
X174825000Y-84456250D01*
G75*
G02*
X174581250Y-84700000I-243750J0D01*
G01*
X174093750Y-84700000D01*
G75*
G02*
X173850000Y-84456250I0J243750D01*
G01*
G37*
G36*
G01*
X171975000Y-84456250D02*
X171975000Y-83543750D01*
G75*
G02*
X172218750Y-83300000I243750J0D01*
G01*
X172706250Y-83300000D01*
G75*
G02*
X172950000Y-83543750I0J-243750D01*
G01*
X172950000Y-84456250D01*
G75*
G02*
X172706250Y-84700000I-243750J0D01*
G01*
X172218750Y-84700000D01*
G75*
G02*
X171975000Y-84456250I0J243750D01*
G01*
G37*
D13*
X173700000Y-57420000D03*
X173700000Y-59960000D03*
D14*
X173700000Y-62500000D03*
D13*
X173700000Y-72480000D03*
X173700000Y-69940000D03*
D14*
X173700000Y-67400000D03*
M02*
