M48
; DRILL file {KiCad (5.99.0-2378-g637571e0b-dirty)} date Fri Jul 24 22:13:05 2020
; FORMAT={-:-/ absolute / inch / decimal}
; #@! TF.CreationDate,2020-07-24T22:13:05+02:00
; #@! TF.GenerationSoftware,Kicad,Pcbnew,(5.99.0-2378-g637571e0b-dirty)
; #@! TF.FileFunction,Plated,1,2,PTH
FMAT,2
INCH
T1C0.0177
T2C0.0394
%
G90
G05
T1
X5.2264Y-2.4803
X5.6063Y-3.3228
X6.25Y-2.2047
X6.2598Y-2.8937
X6.2992Y-1.5748
X6.2992Y-1.8583
X6.7323Y-3.1417
X6.7323Y-3.185
X6.7323Y-3.2283
X6.7362Y-3.2913
X6.7362Y-3.3858
X6.7362Y-3.4449
T2
X4.9945Y-1.3469
X4.9945Y-1.4469
X4.9945Y-1.5469
X4.9945Y-1.6469
X4.9945Y-1.7469
X4.9945Y-1.8469
X4.9945Y-1.9469
X4.9945Y-2.0469
X4.9945Y-2.1469
X4.9945Y-2.2469
X4.9945Y-2.3469
X4.9945Y-2.4469
X4.9945Y-2.5469
X4.9945Y-2.6469
X4.9945Y-2.7469
X4.9945Y-2.8469
X4.9945Y-2.9469
X4.9945Y-3.0469
X5.0945Y-1.3469
X5.0945Y-1.4469
X5.0945Y-1.5469
X5.0945Y-1.6469
X5.0945Y-1.7469
X5.0945Y-1.8469
X5.0945Y-1.9469
X5.0945Y-2.0469
X5.0945Y-2.1469
X5.0945Y-2.2469
X5.0945Y-2.3469
X5.0945Y-2.4469
X5.0945Y-2.5469
X5.0945Y-2.6469
X5.0945Y-2.7469
X5.0945Y-2.8469
X5.0945Y-2.9469
X5.0945Y-3.0469
X5.1945Y-3.1469
X5.1945Y-3.2469
X5.2945Y-3.1469
X5.2945Y-3.2469
X5.3945Y-3.1469
X5.3945Y-3.2469
X5.4945Y-3.1469
X5.4945Y-3.2469
X5.5945Y-3.1469
X5.5945Y-3.2469
X5.6945Y-3.1469
X5.6945Y-3.2469
X5.7945Y-3.1469
X5.7945Y-3.2469
X5.8945Y-3.1469
X5.8945Y-3.2469
X5.9945Y-3.1469
X5.9945Y-3.2469
X6.0945Y-3.1469
X6.0945Y-3.2469
X6.1945Y-3.1469
X6.1945Y-3.2469
X6.2945Y-3.1469
X6.2945Y-3.2469
X6.4945Y-1.3531
X6.4945Y-1.4531
X6.4945Y-1.5531
X6.4945Y-1.6531
X6.4945Y-1.7531
X6.4945Y-1.8531
X6.4945Y-1.9531
X6.4945Y-2.0531
X6.4945Y-2.1531
X6.4945Y-2.2531
X6.4945Y-2.3531
X6.4945Y-2.4531
X6.4945Y-2.5531
X6.4945Y-2.6531
X6.4945Y-2.7531
X6.4945Y-2.8531
X6.5945Y-1.3531
X6.5945Y-1.4531
X6.5945Y-1.5531
X6.5945Y-1.6531
X6.5945Y-1.7531
X6.5945Y-1.8531
X6.5945Y-1.9531
X6.5945Y-2.0531
X6.5945Y-2.1531
X6.5945Y-2.2531
X6.5945Y-2.3531
X6.5945Y-2.4531
X6.5945Y-2.5531
X6.5945Y-2.6531
X6.5945Y-2.7531
X6.5945Y-2.8531
X5.6398Y-0.7169
X5.6398Y-0.8169
X5.7398Y-0.7169
X5.7398Y-0.8169
X5.8398Y-0.7169
X5.8398Y-0.8169
X5.9398Y-0.7169
X5.9398Y-0.8169
X5.4866Y-0.4008
X5.4866Y-0.5008
X5.4866Y-0.6008
X5.4866Y-0.7008
X5.4866Y-0.8008
X5.4866Y-0.9008
X5.4866Y-1.0008
X5.4866Y-1.1008
X5.4866Y-1.2008
X5.4866Y-1.3008
X5.4866Y-1.4008
X5.4866Y-1.5008
X5.4866Y-1.6008
X5.4866Y-1.7008
X5.4866Y-1.8008
X5.4866Y-1.9008
X5.4866Y-2.0008
X5.4866Y-2.1008
X5.4866Y-2.2008
X5.4866Y-2.3008
X5.4866Y-2.4008
X5.4866Y-2.5008
X5.4866Y-2.6008
X5.4866Y-2.7008
X6.0866Y-0.4008
X6.0866Y-0.5008
X6.0866Y-0.6008
X6.0866Y-0.7008
X6.0866Y-0.8008
X6.0866Y-0.9008
X6.0866Y-1.0008
X6.0866Y-1.1008
X6.0866Y-1.2008
X6.0866Y-1.3008
X6.0866Y-1.4008
X6.0866Y-1.5008
X6.0866Y-1.6008
X6.0866Y-1.7008
X6.0866Y-1.8008
X6.0866Y-1.9008
X6.0866Y-2.0008
X6.0866Y-2.1008
X6.0866Y-2.2008
X6.0866Y-2.3008
X6.0866Y-2.4008
X6.0866Y-2.5008
X6.0866Y-2.6008
X6.0866Y-2.7008
X5.5906Y-3.4724
X5.6906Y-3.4724
X5.7906Y-3.4724
X5.8906Y-3.4724
X5.9906Y-3.4724
X6.0906Y-3.4724
X5.0984Y-3.4724
X5.1984Y-3.4724
X5.2984Y-3.4724
X5.3984Y-3.4724
X4.7835Y-1.7094
X4.7835Y-1.8094
X4.7835Y-1.9094
X4.7835Y-2.0866
X4.7835Y-2.1866
X4.7835Y-2.2866
X6.8386Y-2.2606
X6.8386Y-2.3606
X6.8386Y-2.4606
X6.8386Y-2.6535
X6.8386Y-2.7535
X6.8386Y-2.8535
T0
M30
