G04 #@! TF.GenerationSoftware,KiCad,Pcbnew,(5.99.0-2378-g637571e0b-dirty)*
G04 #@! TF.CreationDate,2020-07-24T22:12:37+02:00*
G04 #@! TF.ProjectId,stm32f4_fpga,73746d33-3266-4345-9f66-7067612e6b69,rev?*
G04 #@! TF.SameCoordinates,Original*
G04 #@! TF.FileFunction,Legend,Bot*
G04 #@! TF.FilePolarity,Positive*
%FSLAX46Y46*%
G04 Gerber Fmt 4.6, Leading zero omitted, Abs format (unit mm)*
G04 Created by KiCad (PCBNEW (5.99.0-2378-g637571e0b-dirty)) date 2020-07-24 22:12:37*
%MOMM*%
%LPD*%
G01*
G04 APERTURE LIST*
%ADD10C,0.150000*%
%ADD11C,0.120000*%
G04 APERTURE END LIST*
D10*
X166416666Y-84357142D02*
X166464285Y-84404761D01*
X166607142Y-84452380D01*
X166702380Y-84452380D01*
X166845238Y-84404761D01*
X166940476Y-84309523D01*
X166988095Y-84214285D01*
X167035714Y-84023809D01*
X167035714Y-83880952D01*
X166988095Y-83690476D01*
X166940476Y-83595238D01*
X166845238Y-83500000D01*
X166702380Y-83452380D01*
X166607142Y-83452380D01*
X166464285Y-83500000D01*
X166416666Y-83547619D01*
X166083333Y-83452380D02*
X165464285Y-83452380D01*
X165797619Y-83833333D01*
X165654761Y-83833333D01*
X165559523Y-83880952D01*
X165511904Y-83928571D01*
X165464285Y-84023809D01*
X165464285Y-84261904D01*
X165511904Y-84357142D01*
X165559523Y-84404761D01*
X165654761Y-84452380D01*
X165940476Y-84452380D01*
X166035714Y-84404761D01*
X166083333Y-84357142D01*
X165261904Y-31452380D02*
X165261904Y-32261904D01*
X165214285Y-32357142D01*
X165166666Y-32404761D01*
X165071428Y-32452380D01*
X164880952Y-32452380D01*
X164785714Y-32404761D01*
X164738095Y-32357142D01*
X164690476Y-32261904D01*
X164690476Y-31452380D01*
X163690476Y-32452380D02*
X164261904Y-32452380D01*
X163976190Y-32452380D02*
X163976190Y-31452380D01*
X164071428Y-31595238D01*
X164166666Y-31690476D01*
X164261904Y-31738095D01*
X166666666Y-79702380D02*
X167000000Y-79226190D01*
X167238095Y-79702380D02*
X167238095Y-78702380D01*
X166857142Y-78702380D01*
X166761904Y-78750000D01*
X166714285Y-78797619D01*
X166666666Y-78892857D01*
X166666666Y-79035714D01*
X166714285Y-79130952D01*
X166761904Y-79178571D01*
X166857142Y-79226190D01*
X167238095Y-79226190D01*
X166333333Y-78702380D02*
X165666666Y-78702380D01*
X166095238Y-79702380D01*
X166666666Y-81202380D02*
X167000000Y-80726190D01*
X167238095Y-81202380D02*
X167238095Y-80202380D01*
X166857142Y-80202380D01*
X166761904Y-80250000D01*
X166714285Y-80297619D01*
X166666666Y-80392857D01*
X166666666Y-80535714D01*
X166714285Y-80630952D01*
X166761904Y-80678571D01*
X166857142Y-80726190D01*
X167238095Y-80726190D01*
X165809523Y-80202380D02*
X166000000Y-80202380D01*
X166095238Y-80250000D01*
X166142857Y-80297619D01*
X166238095Y-80440476D01*
X166285714Y-80630952D01*
X166285714Y-81011904D01*
X166238095Y-81107142D01*
X166190476Y-81154761D01*
X166095238Y-81202380D01*
X165904761Y-81202380D01*
X165809523Y-81154761D01*
X165761904Y-81107142D01*
X165714285Y-81011904D01*
X165714285Y-80773809D01*
X165761904Y-80678571D01*
X165809523Y-80630952D01*
X165904761Y-80583333D01*
X166095238Y-80583333D01*
X166190476Y-80630952D01*
X166238095Y-80678571D01*
X166285714Y-80773809D01*
X166666666Y-82702380D02*
X167000000Y-82226190D01*
X167238095Y-82702380D02*
X167238095Y-81702380D01*
X166857142Y-81702380D01*
X166761904Y-81750000D01*
X166714285Y-81797619D01*
X166666666Y-81892857D01*
X166666666Y-82035714D01*
X166714285Y-82130952D01*
X166761904Y-82178571D01*
X166857142Y-82226190D01*
X167238095Y-82226190D01*
X165761904Y-81702380D02*
X166238095Y-81702380D01*
X166285714Y-82178571D01*
X166238095Y-82130952D01*
X166142857Y-82083333D01*
X165904761Y-82083333D01*
X165809523Y-82130952D01*
X165761904Y-82178571D01*
X165714285Y-82273809D01*
X165714285Y-82511904D01*
X165761904Y-82607142D01*
X165809523Y-82654761D01*
X165904761Y-82702380D01*
X166142857Y-82702380D01*
X166238095Y-82654761D01*
X166285714Y-82607142D01*
X166666666Y-86452380D02*
X167000000Y-85976190D01*
X167238095Y-86452380D02*
X167238095Y-85452380D01*
X166857142Y-85452380D01*
X166761904Y-85500000D01*
X166714285Y-85547619D01*
X166666666Y-85642857D01*
X166666666Y-85785714D01*
X166714285Y-85880952D01*
X166761904Y-85928571D01*
X166857142Y-85976190D01*
X167238095Y-85976190D01*
X165809523Y-85785714D02*
X165809523Y-86452380D01*
X166047619Y-85404761D02*
X166285714Y-86119047D01*
X165666666Y-86119047D01*
X166666666Y-87952380D02*
X167000000Y-87476190D01*
X167238095Y-87952380D02*
X167238095Y-86952380D01*
X166857142Y-86952380D01*
X166761904Y-87000000D01*
X166714285Y-87047619D01*
X166666666Y-87142857D01*
X166666666Y-87285714D01*
X166714285Y-87380952D01*
X166761904Y-87428571D01*
X166857142Y-87476190D01*
X167238095Y-87476190D01*
X166333333Y-86952380D02*
X165714285Y-86952380D01*
X166047619Y-87333333D01*
X165904761Y-87333333D01*
X165809523Y-87380952D01*
X165761904Y-87428571D01*
X165714285Y-87523809D01*
X165714285Y-87761904D01*
X165761904Y-87857142D01*
X165809523Y-87904761D01*
X165904761Y-87952380D01*
X166190476Y-87952380D01*
X166285714Y-87904761D01*
X166333333Y-87857142D01*
X173566666Y-86007142D02*
X173614285Y-86054761D01*
X173757142Y-86102380D01*
X173852380Y-86102380D01*
X173995238Y-86054761D01*
X174090476Y-85959523D01*
X174138095Y-85864285D01*
X174185714Y-85673809D01*
X174185714Y-85530952D01*
X174138095Y-85340476D01*
X174090476Y-85245238D01*
X173995238Y-85150000D01*
X173852380Y-85102380D01*
X173757142Y-85102380D01*
X173614285Y-85150000D01*
X173566666Y-85197619D01*
X172709523Y-85435714D02*
X172709523Y-86102380D01*
X172947619Y-85054761D02*
X173185714Y-85769047D01*
X172566666Y-85769047D01*
D11*
X169062779Y-84510000D02*
X168737221Y-84510000D01*
X169062779Y-83490000D02*
X168737221Y-83490000D01*
X125590000Y-33020000D02*
X130670000Y-33020000D01*
X130670000Y-33020000D02*
X130670000Y-78740000D01*
X130670000Y-78740000D02*
X125590000Y-78740000D01*
X125590000Y-78740000D02*
X125590000Y-33020000D01*
X163690000Y-33020000D02*
X168770000Y-33020000D01*
X168770000Y-33020000D02*
X168770000Y-73660000D01*
X168770000Y-73660000D02*
X163690000Y-73660000D01*
X163690000Y-73660000D02*
X163690000Y-33020000D01*
X130670000Y-78740000D02*
X130670000Y-83820000D01*
X130670000Y-83820000D02*
X161150000Y-83820000D01*
X161150000Y-83820000D02*
X161150000Y-78740000D01*
X161150000Y-78740000D02*
X130670000Y-78740000D01*
X168937221Y-78690000D02*
X169262779Y-78690000D01*
X168937221Y-79710000D02*
X169262779Y-79710000D01*
X168937221Y-80190000D02*
X169262779Y-80190000D01*
X168937221Y-81210000D02*
X169262779Y-81210000D01*
X168937221Y-81690000D02*
X169262779Y-81690000D01*
X168937221Y-82710000D02*
X169262779Y-82710000D01*
X168937221Y-85490000D02*
X169262779Y-85490000D01*
X168937221Y-86510000D02*
X169262779Y-86510000D01*
X168937221Y-86990000D02*
X169262779Y-86990000D01*
X168937221Y-88010000D02*
X169262779Y-88010000D01*
X173141422Y-83290000D02*
X173658578Y-83290000D01*
X173141422Y-84710000D02*
X173658578Y-84710000D01*
M02*
